<?xml version="1.0" encoding="utf-8"?>
<!-- Generator: Adobe Illustrator 20.1.0, SVG Export Plug-In . SVG Version: 6.00 Build 0)  -->
<svg version="1.1" id="Layer_1" xmlns="http://www.w3.org/2000/svg" xmlns:xlink="http://www.w3.org/1999/xlink" x="0px" y="0px"
	 viewBox="0 0 1920 1080" style="enable-background:new 0 0 1920 1080;" xml:space="preserve">
<style type="text/css">
	.st0{fill:#CE6A32;}
	.st1{fill:#FFFFFF;}
	.st2{fill:none;stroke:#000000;stroke-miterlimit:10;}
	.st3{fill:#8C6239;stroke:#000000;stroke-miterlimit:10;}
	.st4{fill:#009245;stroke:#000000;stroke-miterlimit:10;}
	.st5{fill:#FFFFFF;stroke:#000000;stroke-miterlimit:10;}
	.st6{fill:#009245;}
	.st7{fill:#8CC63F;stroke:#000000;stroke-miterlimit:10;}
</style>
<g id="XMLID_1_">
	<g>
		<path class="st0" d="M1166.6,650.8V700c0-9.9-28.3-18.7-72.8-24.6C1138.3,669.5,1166.6,660.7,1166.6,650.8z"/>
		<path class="st0" d="M1166.6,650.8H759.1c0-17.7,91.2-32.1,203.7-32.1C1075.4,618.7,1166.6,633.1,1166.6,650.8z"/>
		<path class="st0" d="M759.1,650.8h407.5c0,9.9-28.3,18.7-72.8,24.6c-35.4-4.7-81.1-7.5-131-7.5c-49.9,0-95.6,2.8-131,7.5
			C787.4,669.5,759.1,660.7,759.1,650.8z"/>
		<path class="st0" d="M1166.6,700h-7.5H766.6h-7.5c0-9.9,28.3-18.7,72.8-24.6c35.4,4.7,81.1,7.5,131,7.5c49.9,0,95.6-2.8,131-7.5
			C1138.3,681.3,1166.6,690.1,1166.6,700z"/>
		<path class="st1" d="M1159.1,700h7.5c0,3.4-3.4,6.7-9.6,9.8L1159.1,700z"/>
		<path class="st0" d="M1159.1,700l-2.1,9.8c-26.2,13-103.2,22.3-194.1,22.3c-90.9,0-167.9-9.4-194.2-22.3l-2.1-9.8H1159.1z"/>
		<path class="st0" d="M1157,709.7l-49.8,229.8c0-17.3-64.6-31.3-144.3-31.3c-79.7,0-144.3,14-144.3,31.3l-49.9-229.8
			c26.2,13,103.2,22.3,194.2,22.3C1053.8,732.1,1130.8,722.7,1157,709.7z"/>
		<path class="st0" d="M962.9,908.2c79.7,0,144.3,14,144.3,31.3s-64.6,31.3-144.3,31.3c-79.7,0-144.3-14-144.3-31.3
			S883.2,908.2,962.9,908.2z"/>
		<path class="st1" d="M962.9,667.9c49.9,0,95.6,2.8,131,7.5c-35.4,4.7-81.1,7.5-131,7.5c-49.9,0-95.6-2.8-131-7.5
			C867.3,670.7,913,667.9,962.9,667.9z"/>
		<path class="st0" d="M759.1,650.8c0,9.9,28.3,18.7,72.8,24.6c-44.5,5.9-72.8,14.7-72.8,24.6V650.8z"/>
		<path class="st1" d="M766.6,700l2.1,9.8c-6.2-3.1-9.6-6.3-9.6-9.8H766.6z"/>
	</g>
	<g>
		<path class="st2" d="M1107.2,939.5c0,17.3-64.6,31.3-144.3,31.3c-79.7,0-144.3-14-144.3-31.3s64.6-31.3,144.3-31.3
			C1042.6,908.2,1107.2,922.2,1107.2,939.5z"/>
		<path class="st2" d="M1166.6,700c0,3.4-3.4,6.7-9.6,9.8c-26.2,13-103.2,22.3-194.1,22.3c-90.9,0-167.9-9.4-194.2-22.3
			c-6.2-3.1-9.6-6.3-9.6-9.8"/>
		<polyline class="st2" points="1166.6,650.8 1166.6,700 1159.1,700 766.6,700 759.1,700 759.1,650.8 		"/>
		<path class="st2" d="M1166.6,650.8c0,9.9-28.3,18.7-72.8,24.6c-35.4,4.7-81.1,7.5-131,7.5c-49.9,0-95.6-2.8-131-7.5
			c-44.5-5.9-72.8-14.7-72.8-24.6c0-17.7,91.2-32.1,203.7-32.1C1075.4,618.7,1166.6,633.1,1166.6,650.8z"/>
		<polyline class="st2" points="766.6,700 768.7,709.7 818.6,939.5 		"/>
		<polyline class="st2" points="1159.1,700 1157,709.7 1107.2,939.5 		"/>
	</g>
</g>
<g>
	<g>
		<path class="st1" d="M817.3,707.3c6.4,0,6.4-10,0-10C810.9,697.3,810.9,707.3,817.3,707.3L817.3,707.3z"/>
	</g>
</g>
<g>
	<g>
		<path class="st1" d="M603.9,610.3c6.4,0,6.4-10,0-10C597.5,600.3,597.5,610.3,603.9,610.3L603.9,610.3z"/>
	</g>
</g>
<g>
	<g>
		<path class="st1" d="M821.1,704.2c8.6,0.6,17.3,1.3,26,1.1c4-0.1,7.9-0.4,11.8-1c4.5-0.6,9.3-2.2,13.9-1.5c6.3,1,9-8.7,2.7-9.6
			c-8.8-1.4-17.6,1.6-26.5,2c-9.3,0.4-18.6-0.3-27.9-1C814.6,693.7,814.7,703.7,821.1,704.2L821.1,704.2z"/>
	</g>
</g>
<g>
	<g>
		<path class="st1" d="M762.5,700.1c0.8,3.5,3.6,4.9,7,5.2c5.2,0.4,10.6,0,15.7,0c10.5,0,21-0.1,31.5-0.1c6.4,0,6.4-10,0-10
			c-7.9,0-15.7,0-23.6,0.1c-3.9,0-7.9,0-11.8,0c-1.6,0-3.3,0-4.9,0c-1.5,0-5.1,0.7-6.3,0c0.8,1,1.5,2,2.3,3
			c-0.1-0.3-0.1-0.6-0.2-0.8C770.7,691.1,761,693.8,762.5,700.1L762.5,700.1z"/>
	</g>
</g>
<g>
	<g>
		<path class="st1" d="M871.6,703.8c13.2,6.1,27.2,8.1,41.6,6.1c4.9-0.7,4.6-8.7,0-9.6c-9.6-2-19.1-4.1-28.7-6.1
			c-0.4,3.3-0.9,6.5-1.3,9.8c21,0.7,41.9,1.3,62.8-0.7c10-1,19.9-1.8,29.9-1.3c10.2,0.5,20.5,1.4,30.7,2.1c6.4,0.5,6.4-9.6,0-10
			c-10.2-0.7-20.5-1.6-30.7-2.1c-10.1-0.5-19.9,0.3-29.9,1.3c-20.9,2-41.9,1.4-62.8,0.7c-5.6-0.2-6.9,8.6-1.3,9.8
			c9.6,2,19.1,4.1,28.7,6.1c0-3.2,0-6.4,0-9.6c-11.5,1.6-23.4-0.2-33.9-5.1C870.8,692.5,865.7,701.1,871.6,703.8L871.6,703.8z"/>
	</g>
</g>
<g>
	<g>
		<path class="st1" d="M1007.7,703.5c16.1,1.8,31.6,5.8,47.7,1.5c7.5-2,15-5.6,22.8-6c7.2-0.4,11.8,5.8,19,5.7c6.4-0.1,6.4-10,0-10
			c-9.8,0-19.6,1.3-29.1,3.9c1.3,3,2.6,6.1,3.9,9.1c5.3-3.9,11.6-4,17.9-4.3c6.4-0.2,12.9-0.2,19.3-0.3c12.9-0.2,25.9-1,38.3-4.7
			c6.1-1.8,3.5-11.5-2.7-9.6c-13.4,4-27.3,4.3-41.2,4.4c-11.8,0.1-26.7-1.5-36.7,5.9c-4.3,3.2-2,10.7,3.9,9.1
			c8.7-2.4,17.4-3.5,26.4-3.6c0-3.3,0-6.7,0-10c-3.3,0-6.4-3-9.3-4.2c-3.1-1.2-6.4-1.7-9.6-1.5c-7.6,0.3-14.8,3.2-22,5.4
			c-8,2.4-15.8,3.3-24.1,2.5c-8.2-0.7-16.3-2.4-24.4-3.4C1001.3,692.8,1001.4,702.8,1007.7,703.5L1007.7,703.5z"/>
	</g>
</g>
<g>
	<g>
		<path class="st1" d="M1137.9,702.5c3.2,3.7,8.1,3.8,12.6,2.8c4.1-0.9,8.8,0.2,12-3.2c4.4-4.7-2.6-11.8-7.1-7.1
			c0.8-0.9-0.6-0.4-1.3-0.4c-1.4,0-2.7,0.2-4.1,0.5c-1.4,0.3-3.9,1.5-5,0.3C1140.7,690.6,1133.7,697.7,1137.9,702.5L1137.9,702.5z"
			/>
	</g>
</g>
<g>
	<g>
		<path class="st1" d="M769.3,694.6c-0.8,0-1.7,0-2.5-0.1c0.4,0.1,0.9,0.1,1.3,0.2c-0.1,0-0.3,0-0.4-0.1c0.7,0.4,1.5,0.9,2.2,1.3
			c-0.4-0.4-0.8-0.8-1.4-1.1c-1.2-0.6-2.5-0.9-3.9-0.5c-1.8,0.5-3.3,1.9-3.7,3.8c3-0.4,6.1-0.8,9.1-1.2c-0.1-0.2-0.2-0.3-0.3-0.5
			c-1-1.9-3.6-2.9-5.6-2.3c-0.8,0.3-1.6,0.7-2.2,1.3c-1,0.9-1.3,2.2-1.5,3.5c0,0.3,0,0.6,0,1c2.8-1.2,5.7-2.4,8.5-3.5
			c0,0-0.1-0.1-0.1-0.1c0.4,0.7,0.9,1.5,1.3,2.2c0-0.1,0-0.1-0.1-0.2c0.1,0.4,0.1,0.9,0.2,1.3c0-1.2-0.2-2.2-0.8-3.3
			c-0.9-1.9-3.7-2.9-5.6-2.3c-2.2,0.7-3.5,2.5-3.7,4.8c0,0.4-0.1,0.8-0.1,1.2c3.3-0.4,6.5-0.9,9.8-1.3c0-0.2-0.1-0.3-0.1-0.5
			c0.1,0.4,0.1,0.9,0.2,1.3c0-0.3,0-0.5,0-0.8c-0.1,0.4-0.1,0.9-0.2,1.3c0.1-0.3,0.1-0.5,0.2-0.7c-0.2,0.4-0.3,0.8-0.5,1.2
			c0-0.1,0.1-0.2,0.1-0.2c1.2-2.3,0.7-5.5-1.8-6.8c-2.3-1.2-5.6-0.7-6.8,1.8c-1,2-1.3,3.9-0.8,6.1c0.5,2.4,3.1,3.9,5.5,3.6
			c2.6-0.3,4.2-2.4,4.3-4.9c0-0.4,0.1-0.8,0.1-1.2c-3.1,0.8-6.2,1.7-9.3,2.5c0,0.1,0.1,0.1,0.1,0.2c-0.2-0.8-0.5-1.7-0.7-2.5
			c0.1,1.8,0.3,3.2,1.6,4.5c1.4,1.4,3.6,1.8,5.5,1c1.8-0.8,3.1-2.6,3.1-4.6c0-0.3,0-0.6,0-1c-3.1,0.8-6.2,1.7-9.3,2.5
			c0.1,0.2,0.2,0.3,0.3,0.5c0.9,1.8,3.1,2.6,5,2.4c1.9-0.3,3.7-1.7,4.2-3.6c0,0,0-0.1,0-0.1c-0.2,0.4-0.3,0.8-0.5,1.2
			c0,0,0-0.1,0.1-0.1c-1,0.8-2,1.5-3,2.3c0,0,0.1,0,0.1,0c-1.3-0.2-2.6-0.3-3.9-0.5c-0.8-0.6-1.1-0.8-0.7-0.5c0.6,0.6,1.4,1,2.2,1.3
			c0.6,0.2,1.3,0.3,1.9,0.3c0.8,0,1.5,0.1,2.3,0.1c2.6,0.1,5.1-2.4,5-5C774.2,696.8,772.1,694.7,769.3,694.6L769.3,694.6z"/>
	</g>
</g>
<g>
	<g>
		<path class="st1" d="M770.9,697.4c-0.9,0.3-1.8,0.7-2.4,1.5c-0.4,0.4-0.7,0.9-1,1.4c0.3-0.3,0.5-0.7,0.8-1c0,0,0,0.1-0.1,0.1
			c0.3-0.3,0.7-0.5,1-0.8c0,0-0.1,0-0.1,0.1c0.4-0.2,0.8-0.3,1.2-0.5c-0.5,0.2-1.1,0.4-1.6,0.7c-0.9,0.6-1.4,1.2-2,2.1
			c0.3-0.3,0.5-0.7,0.8-1c0,0.1-0.1,0.1-0.2,0.2c0.3-0.3,0.7-0.5,1-0.8c0,0-0.1,0-0.1,0c0.8-0.2,1.7-0.5,2.5-0.7c0,0-0.1,0-0.1,0
			c0.4,0.1,0.9,0.1,1.3,0.2c0,0-0.1,0-0.1,0c-1.1-0.5-2.9-0.1-3.9,0.5c-1,0.6-2,1.8-2.3,3c-0.3,1.3-0.2,2.7,0.5,3.9
			c0.3,0.3,0.5,0.7,0.8,1c0.6,0.6,1.4,1,2.2,1.3c0.4,0.2,1.1,0.2,1.5,0.2c0.9,0,1.8-0.2,2.6-0.7c1-0.6,1.4-1.2,2.1-2.1
			c-0.3,0.3-0.5,0.7-0.8,1c0,0,0.1-0.1,0.1-0.1c-0.3,0.3-0.7,0.5-1,0.8c0,0,0.1,0,0.1-0.1c-0.4,0.2-0.8,0.3-1.2,0.5
			c1-0.4,1.9-0.7,2.7-1.5c0.5-0.4,0.8-0.9,1.1-1.5c-0.3,0.3-0.5,0.7-0.8,1c0-0.1,0.1-0.1,0.1-0.1c-0.7,0.4-1.5,0.9-2.2,1.3
			c0,0,0.1,0,0.1,0c1.2-0.5,2.3-1.1,3-2.3c0.6-1.1,0.9-2.7,0.5-3.9c-0.4-1.2-1.1-2.4-2.3-3C773.6,697.3,772.2,696.9,770.9,697.4
			L770.9,697.4z"/>
	</g>
</g>
<g>
	<g>
		<path class="st1" d="M773.1,699.8c-0.1,0-0.1,0-0.2-0.1c0.4,0.2,0.8,0.3,1.2,0.5c-0.1,0-0.1-0.1-0.2-0.1c0.3,0.3,0.7,0.5,1,0.8
			c-0.5-0.4-1-0.9-1.5-1.2c-0.4-0.2-0.9-0.4-1.4-0.6c-1.1-0.3-1.8-0.2-2.9,0c-1.1,0.2-2.5,1.3-3,2.3c-0.5,1-0.7,2.1-0.6,3.2
			c0.1,1,0.6,2.1,1.4,2.9c0.3,0.3,0.7,0.5,1,0.8c0.8,0.5,1.6,0.7,2.5,0.7c0,0,0.1,0,0.1,0c-0.8-0.2-1.7-0.5-2.5-0.7
			c0,0,0.1,0,0.1,0.1c-0.6-0.6-1.2-1.2-1.8-1.8c0,0,0.1,0.1,0.1,0.1c0.8,1.1,1.7,1.9,3,2.3c1.2,0.3,2.8,0.2,3.9-0.5
			c1.1-0.7,2-1.7,2.3-3c0.3-1.2,0.3-2.8-0.5-3.9c-0.6-0.8-1-1.4-1.9-1.9c-1-0.6-1.6-0.6-2.7-0.7c0.4,3.3,0.9,6.5,1.3,9.8
			c0,0,0.1,0,0.1,0c-0.4,0.1-0.9,0.1-1.3,0.2c0,0,0.1,0,0.1,0c-0.4-0.1-0.9-0.1-1.3-0.2c0,0,0.1,0,0.1,0c-0.4-0.2-0.8-0.3-1.2-0.5
			c0.1,0,0.1,0.1,0.2,0.1c-0.3-0.3-0.7-0.5-1-0.8c0.3,0.2,0.6,0.5,0.9,0.7c0.6,0.5,1.3,0.9,2.1,1.1c1.3,0.3,2.7,0.2,3.9-0.5
			c1-0.6,2-1.8,2.3-3c0.3-1.3,0.2-2.7-0.5-3.9C775.5,701,774.4,700,773.1,699.8L773.1,699.8z"/>
	</g>
</g>
<g>
	<g>
		<path class="st1" d="M1155.4,697.6c0,0.3,0.1,0.6,0.1,0.8c-0.2,0.8-0.5,1.7-0.7,2.5c0-0.1,0.1-0.1,0.1-0.2c-1,0.8-2,1.5-3,2.3
			c0.1,0,0.1-0.1,0.2-0.1c-1.3-0.2-2.6-0.3-3.9-0.5c0.8,0.4,1.5,0.8,2.3,1.1c0.1,0,0.8,0.3,0.9,0.2c-0.1,0.1-2.2-1.4-1.1-0.4
			c1.3,1.3,3,2,4.8,2.3c-0.4-3-0.8-6.1-1.2-9.1c-2.2,1-3.1,3.5-3.7,5.7c-0.5,1.7,0,3.6,1.3,4.9c1.4,1.4,3,1.5,4.9,1.3
			c0.1,0,0.1,0,0.2,0c2.6-0.4,4.3-3.8,3.5-6.2c-0.9-2.8-3.4-3.9-6.2-3.5c-0.1,0-0.1,0-0.2,0c2.1,2.1,4.1,4.1,6.2,6.2
			c0.1-0.4,0.2-0.7,0.3-1.1c0-0.1,0.1-0.2,0.1-0.4c-0.2,0.7-0.7,1.3-1.4,1.8c1.8-0.8,2.6-3.2,2.4-5c-0.3-1.9-1.7-3.7-3.6-4.2
			c-0.3-0.1-1.7-0.6-0.6,0c-0.5-0.3-0.4-0.2,0.1,0.1c-0.1-0.2-0.3-0.3-0.4-0.5c-0.7-0.7-1.6-1.2-2.5-1.5c-0.2-0.1-0.4-0.1-0.6-0.2
			c-0.5-0.1-0.5-0.1,0.1,0.1c-0.2-0.1-0.4-0.2-0.6-0.3c-0.8-0.5-1.6-0.7-2.5-0.7c-0.9,0-1.9,0.3-2.7,0.8c-2.2,1.3-3,4-2.3,6.4
			c0.7,2.5,3.6,4.3,6.2,3.5C1154.5,702.9,1156.2,700.3,1155.4,697.6L1155.4,697.6z"/>
	</g>
</g>
<g>
	<g>
		<path class="st1" d="M1153.8,695.5c-1.6,0.8-2.7,2.4-3.2,4c-0.4,1.1-0.3,2.3-0.4,3.5c0.1-0.4,0.1-0.9,0.2-1.3
			c0,0.2-0.1,0.5-0.1,0.7c-0.2,1-0.2,1.8,0,2.8c0.3,1.7,1.9,3,3.5,3.5c0,0,0.1,0,0.1,0c1.1,0.3,2.3,0.2,3.3-0.3
			c1.1-0.5,1.7-1.1,2.4-2c0,0,0-0.1,0.1-0.1c0.6-0.9,0.7-2.2,0.6-3.2c-0.1-1-0.6-2.1-1.4-2.9c-1.7-1.6-4-1.9-6.1-0.8
			c-0.6,0.3-1.1,0.7-1.6,1.2c-1.8,1.9-2,5.2,0,7.1c2,1.8,5.1,2,7.1,0c-0.7,0.5-0.9,0.6-0.5,0.4c-2.3-2.3-4.6-4.6-6.8-6.8
			c0,0,0,0.1-0.1,0.1c1.9-0.8,3.8-1.5,5.6-2.3c0,0-0.1,0-0.1,0c1.2,1.2,2.3,2.3,3.5,3.5c0,0,0-0.1,0-0.1c0,0.9,0,1.8,0,2.7
			c0.3-1.3,0.3-2.5,0.4-3.8c-0.1,0.4-0.1,0.9-0.2,1.3c0-0.2,0.3-0.9,0-0.1c-0.1,0.4-0.4,0.8-0.8,1c-0.8,0.6-0.9,0.8-0.5,0.6
			c2.3-1.2,3.2-4.7,1.8-6.8C1159.1,694.9,1156.3,694.2,1153.8,695.5L1153.8,695.5z"/>
	</g>
</g>
<g>
	<g>
		<path class="st1" d="M1156.2,692.7c-0.3,0.1-0.6,0.2-0.9,0.3c0.4-0.1,0.9-0.1,1.3-0.2c-0.1,0-0.2,0-0.2,0
			c-2.1,0.1-4.3,1.5-4.8,3.7c-0.5,2.3,0.4,4.3,2.3,5.6c1.2,0.8,2.6,0.7,3.9,0.9c-0.4-0.1-0.9-0.1-1.3-0.2c0.7,0.1,1.3,0.3,2,0.5
			c-0.4-0.2-0.8-0.3-1.2-0.5c0.1,0,0.1,0,0.2,0.1c-0.6-0.6-1.2-1.2-1.8-1.8c0,0.1,0.1,0.1,0.1,0.2c-0.2-0.4-0.3-0.8-0.5-1.2
			c0.1,0.2,0.1,0.4,0.2,0.6c0.7,2.5,3.6,4.3,6.2,3.5c2.6-0.8,4.2-3.4,3.5-6.2c-0.3-1.1-0.7-2.1-1.5-2.9c-0.8-0.8-1.9-1.2-2.9-1.5
			c-1.3-0.3-2.5-0.5-3.8-0.6c0.4,0.1,0.9,0.1,1.3,0.2c-0.1,0-0.1,0-0.2,0c0.4,0.2,0.8,0.3,1.2,0.5c-0.1,0-0.1-0.1-0.2-0.1
			c-0.8,3.1-1.7,6.2-2.5,9.3c0.8,0,1.7-0.1,2.5-0.4c1.3-0.5,2.3-1.1,3-2.3c0.6-1.1,0.9-2.7,0.5-3.9c-0.4-1.2-1.1-2.4-2.3-3
			C1158.9,692.6,1157.4,692.2,1156.2,692.7L1156.2,692.7z"/>
	</g>
</g>
<g>
	<g>
		<path class="st1" d="M1161.5,704.1c0,0,0.1,0,0.1,0c-0.4,0.1-0.9,0.1-1.3,0.2c0,0,0.1,0,0.1,0c-0.8-0.2-1.7-0.5-2.5-0.7
			c0,0,0.1,0,0.1,0c-0.3-0.3-0.7-0.5-1-0.8c0,0,0.1,0.1,0.1,0.1c0.9,0.9,2.3,1.5,3.5,1.5c1.2,0,2.7-0.5,3.5-1.5
			c0.9-1,1.5-2.2,1.5-3.5c-0.1-1.3-0.5-2.6-1.5-3.5c-1.4-1.4-3.4-1.9-5.3-1.4c-1.2,0.3-2.3,1.2-3,2.3c-0.6,1.1-0.9,2.7-0.5,3.9
			c0.4,1.2,1.1,2.4,2.3,3C1158.9,704.3,1160.2,704.5,1161.5,704.1L1161.5,704.1z"/>
	</g>
</g>
<g>
	<path class="st1" d="M854.3,899.6c2.5,3.4-1.3,7.8-4.5,10.6c-3.1,2.8-5.6,8.7-1.8,10.6c1.6,0.8,3.5,0.3,5.3-0.2
		c35.4-10.6,72.9-11,109.8-11.3c10.6-0.1,21.3-0.2,31.9,0.6c11.7,0.8,23.3,2.7,34.9,4.5c17.8,2.8,35.6,5.6,53.4,8.5
		c1.7,0.3,3.5,0.6,4.6,1.8c1.4,1.5,1.4,4.1,3.2,5.2c2.4,1.5,7.3,0.3,6.9,3.1c-4-0.4-8-0.8-12-1.2c-31.2-3.2-62.4-6.4-93.3-11.5
		c-21.6-3.6-43.1-8.1-64.7-11.7c-9.3-1.5-18.7-2.9-28-1.9c-9.6,1-18.6,4.6-27.6,8c-15.1,5.9-30.3,11.8-45.4,17.6"/>
	<g>
		<path class="st0" d="M850,902.1c0.5,1.1-6,7.1-6.8,8.4c-1.6,2.7-2.6,6.2-1.8,9.3c2.4,9.1,12.4,5.7,18.6,4
			c19.5-5.3,39.6-7.5,59.8-8.6c20-1,40.2-1.3,60.2-1c20.9,0.3,41.3,3.8,61.9,7c11.1,1.8,22.2,3.5,33.3,5.3c2.2,0.3,6,0.2,7.9,1.3
			c1.7,0.9,1.8,2.6,3.1,4.2c1.1,1.4,2.6,2.5,4.3,3c0.7,0.2,1.4,0.3,2.1,0.4c3.4,0.6,0.6,0.5,0.3-2.6c1.7-1.7,3.3-3.3,5-5
			c-36.7-3.8-73.4-7.3-109.7-13.6c-17.8-3.1-35.5-6.7-53.3-9.8c-17.5-3-34-5.1-51.3,0.5c-19.7,6.4-38.8,14.8-58.1,22.3
			c-5.9,2.3-3.4,12,2.7,9.6c16.8-6.5,33.6-13.2,50.5-19.6c8-3,16.3-5.8,24.9-6.2c9-0.4,17.9,1.1,26.8,2.6
			c35.6,6.1,70.9,13.2,106.8,17.5c20.2,2.4,40.5,4.4,60.7,6.5c2.5,0.3,5.2-2.5,5-5c-0.3-3.1-1.7-5.5-4.8-6.5c-1.1-0.4-3-0.1-3.9-0.7
			c-1-0.7-1.6-3-2.5-4c-2.4-2.8-5.7-3.4-9.1-3.9c-5.4-0.9-10.8-1.7-16.2-2.6c-20.5-3.3-41.1-7.1-61.7-9.4c-20.3-2.3-41-1.6-61.4-1.3
			c-20.2,0.3-40.4,1.3-60.3,4.3c-5.5,0.8-11.1,1.9-16.5,3.1c-3,0.7-6.1,1.4-9.1,2.2c-1.9,0.5-5.2,0.8-6.7,1.9
			c0.2,0.5,0.3,0.9,0.5,1.4c0.1-0.3,0.1-0.6,0.2-0.9c0.6-0.4,1.5-2.3,2-2.9c1.5-1.6,3.1-3,4.3-4.9c2.6-3.8,3-7.7,0.9-11.8
			C855.7,891.3,847,896.3,850,902.1L850,902.1z"/>
	</g>
</g>
<g>
	<path class="st0" d="M823.9,930.1c-0.5,1.2-1,2.6-0.3,3.6c0.4,0.6,1.3,1.2,1,1.9c-0.1,0.3-0.4,0.5-0.6,0.7
		c-0.2,0.2-0.4,0.6-0.2,0.8"/>
</g>
<g>
	<g>
		<path class="st1" d="M1089.8,937.2c1.7,0.1,3-0.7,4.5-1.5c-0.8,0.2-1.7,0.5-2.5,0.7c0.5,0,2.9,0.8,4,1c2,0.3,3.8-0.2,5.8-0.4
			c-0.9,0-1.8,0-2.7,0c0.1,0,0.2,0,0.3,0.1c-1-0.8-2-1.5-3-2.3c0,0.1,0.1,0.2,0.1,0.3c-0.2-0.8-0.5-1.7-0.7-2.5
			c0,2.3-0.5,4.8,0.8,6.9c1.9,3.2,5.8,3.1,8.4,0.9c-2.8-0.7-5.6-1.5-8.4-2.2c0,0.2,0.1,0.4,0.1,0.6c0.9,4.7,8.8,4.8,9.6,0
			c0-0.4,0.1-0.7,0.3-1c-3,0.4-6.1,0.8-9.1,1.2c0.1,0.1,0.1,0.2,0.2,0.2c-0.2-0.8-0.5-1.7-0.7-2.5c0,0.1,0,0.2,0,0.3
			c-0.4,6.4,9.6,6.4,10,0c0.1-1.1-0.2-2.2-0.8-3.1c-2.5-3.6-7.7-3-9.1,1.2c-0.1,0.3-0.2,0.7-0.3,1c3.2,0,6.4,0,9.6,0
			c0-0.2-0.1-0.4-0.1-0.6c-0.8-4-5.7-4.4-8.4-2.2c-0.1,0.1-0.2,0.1-0.2,0.2c1.6-0.4,3.2-0.9,4.9-1.3c-0.1,0-0.2-0.1-0.3-0.1
			c1,0.8,2,1.5,3,2.3c0.4,1.3,0.5,1.4,0.4,0.2c0-0.6,0.1-1.1,0.1-1.7c0-1-0.2-2-0.7-2.9c-1.4-2.5-3.9-3-6.5-2.6
			c-1.6,0.3-2.6-0.3-4.6-0.8c-2.4-0.5-4.1,0.3-6.2,1.3c0.8-0.2,1.7-0.5,2.5-0.7c-0.2,0-0.3,0-0.5,0
			C1083.4,926.9,1083.4,936.9,1089.8,937.2L1089.8,937.2z"/>
	</g>
</g>
<g>
	<g>
		<path class="st1" d="M1095.8,940.5c0.5,0.1,1,0.3,1.5,0.4c-0.8-0.3-1-0.4-0.6-0.2c0.1,0.1,0.2,0.1,0.3,0.2
			c-0.6-0.5-0.8-0.7-0.5-0.4c0.3,0.3,0.2,0.1-0.4-0.5c1.1,2.1,3.2,3.5,5.5,3.5c2.6,0.1,5.1-2.3,5-5c-0.1-2.8-2.2-4.9-5-5
			c-0.1,0-0.1,0-0.2,0c0.4,0.1,0.9,0.1,1.3,0.2c0.9,0.2,1.5,0.6,2,1.3c0.3,0.4,0.3,0.4,0.1,0.1c-0.2-0.3-0.4-0.6-0.7-0.9
			c-0.6-0.8-1.3-1.4-2.2-1.9c-1.1-0.7-2.4-1.1-3.6-1.4c-2.5-0.6-5.5,0.8-6.2,3.5C1091.8,937,1093.1,939.9,1095.8,940.5L1095.8,940.5
			z"/>
	</g>
</g>
<g>
	<g>
		<path class="st1" d="M1105.6,941.4c0.3-0.6,0.6-1.3,0.8-2c0.2-0.6,0.5-1.3,0.5-2c-0.2,0.1-0.4,0.2-0.6,0.3c0,0,0,0.1,0,0.1
			c0.1,0.5,0.8,0.3,0.7-0.2c0-0.2-0.1-0.3-0.2-0.4c-0.2-0.2-0.7-0.1-0.6,0.3c0.1,0.6-0.2,1.2-0.4,1.8c-0.2,0.6-0.5,1.2-0.8,1.8
			C1104.7,941.4,1105.4,941.8,1105.6,941.4L1105.6,941.4z"/>
	</g>
</g>
<g>
	<g>
		<path class="st1" d="M1106.2,937.5c-0.1,0.4-0.2,0.8-0.4,1.2c-0.2,0.4,0.5,0.6,0.7,0.2c0.2-0.4,0.3-0.8,0.4-1.2
			C1107.1,937.2,1106.3,937,1106.2,937.5L1106.2,937.5z"/>
	</g>
</g>
<g>
	<g>
		<path class="st1" d="M1106.2,937.4c-0.3,0.4-0.4,0.9-0.4,1.4c0,0.4,0.7,0.5,0.7,0.1c0-0.3,0.1-0.6,0.3-0.8
			c-0.2-0.1-0.4-0.3-0.6-0.4c-0.2,0.3-0.3,0.6-0.5,0.9c-0.2,0.4,0.4,0.8,0.6,0.4c0.2-0.3,0.3-0.6,0.5-0.9c0.2-0.4-0.4-0.8-0.6-0.4
			c-0.2,0.3-0.3,0.6-0.4,1c0.2,0,0.5,0.1,0.7,0.1c0-0.4,0.1-0.7,0.3-1C1107.1,937.4,1106.5,937,1106.2,937.4L1106.2,937.4z"/>
	</g>
</g>
<g>
	<g>
		<path class="st1" d="M1106,938c-0.2,0.8-0.4,1.7-0.7,2.5c-0.1,0.3,0.4,0.7,0.6,0.4c0.4-0.5,0.3-1.4,0.3-2c0-0.5-0.7-0.5-0.8,0
			c0,0.3,0,0.5,0,0.8c0,0.2,0,0.6-0.1,0.7c0.2,0.1,0.4,0.2,0.6,0.4c0.2-0.8,0.4-1.7,0.7-2.5C1106.8,937.7,1106.1,937.5,1106,938
			L1106,938z"/>
	</g>
</g>
<g>
	<g>
		<path class="st1" d="M1105.7,941.7c0.7-1.1,1.1-2.6,1.2-3.8c0.1-0.5-0.7-0.5-0.8,0c-0.1,1.1-0.5,2.5-1.1,3.4
			C1104.8,941.7,1105.4,942.1,1105.7,941.7L1105.7,941.7z"/>
	</g>
</g>
<g>
	<g>
		<path class="st1" d="M1106.2,937.7c-0.1,0.4-0.2,0.8-0.4,1.1c-0.2,0.4,0.4,0.8,0.6,0.4c0.2-0.4,0.4-0.9,0.5-1.3
			C1107,937.5,1106.3,937.3,1106.2,937.7L1106.2,937.7z"/>
	</g>
</g>
<g>
	<g>
		<path class="st1" d="M818.9,937c-0.1,0.9,0,1.6,0.3,2.4c0.2,0.8,0.4,1.5,1,2.2c0.3,0.4,0.8-0.2,0.5-0.5c-0.4-0.5-0.6-1.2-0.8-1.8
			c-0.2-0.7-0.4-1.3-0.3-2C819.6,936.8,818.9,936.6,818.9,937L818.9,937z"/>
	</g>
</g>
<g>
	<g>
		<path class="st1" d="M819,937c-0.1,0.3-0.2,0.6-0.2,0.9c-0.1,0.5,0.6,0.7,0.7,0.2c0.1-0.3,0.1-0.6,0.2-0.9
			C819.9,936.7,819.1,936.5,819,937L819,937z"/>
	</g>
</g>
<g>
	<g>
		<path d="M819.5,940.4c-0.2-0.4-0.3-0.8-0.5-1.2c-0.1-0.4-0.8-0.4-0.7,0.1c0,0.7,0.2,1.3,0.5,1.9c0.2-0.1,0.4-0.3,0.6-0.4
			c-0.3-0.5-0.5-1-0.6-1.6c-0.1-0.5-0.8-0.3-0.7,0.2c0.2,1.1,0.6,2.1,1.2,3c0.2,0.4,0.9,0,0.6-0.4c-0.5-0.9-0.8-1.9-1.1-2.9
			c-0.2,0.1-0.5,0.1-0.7,0.2c0.2,0.6,0.4,1.2,0.7,1.7c0.2,0.4,0.9,0,0.6-0.4c-0.3-0.5-0.4-1-0.4-1.6c-0.2,0-0.5,0.1-0.7,0.1
			c0.2,0.4,0.3,0.8,0.5,1.2C819,941.1,819.7,940.9,819.5,940.4L819.5,940.4z"/>
	</g>
</g>
<g>
	<g>
		<path d="M818.3,939.6c0.5,0,0.5-0.8,0-0.8C817.8,938.8,817.8,939.6,818.3,939.6L818.3,939.6z"/>
	</g>
</g>
<g>
	<g>
		<path d="M818.3,939.3c-0.2,0.5-0.1,0.9,0.3,1.2c0.4,0.3,0.8-0.4,0.4-0.6c0-0.1-0.1-0.1-0.1-0.2
			C819.1,939.2,818.5,938.9,818.3,939.3L818.3,939.3z"/>
	</g>
</g>
<g>
	<g>
		<path d="M818.1,939.4c0,0.1,0,0.2,0,0.2c0,0.5,0.8,0.5,0.8,0c0-0.1,0-0.2,0-0.2C818.9,938.9,818.1,938.9,818.1,939.4L818.1,939.4z
			"/>
	</g>
</g>
<g>
	<g>
		<path class="st1" d="M820.4,940.9C820.3,940.9,820.3,940.9,820.4,940.9c0,0,0.1,0.1,0.1,0.1c0,0,0,0,0,0c0-0.5-0.8-0.5-0.8,0
			c0,0.3,0.1,0.4,0.4,0.6C820.6,941.8,820.8,941,820.4,940.9L820.4,940.9z"/>
	</g>
</g>
<g>
	<g>
		<path class="st1" d="M820.2,940.1c-0.4-0.3-1,0.1-0.7,0.5c0.2,0.4,0.8,0.1,0.7-0.3c-0.1-0.2-0.1-0.4-0.2-0.5
			c-0.2-0.4-0.8-0.3-0.7,0.2c0.1,0.3,0.1,0.6,0.3,0.8c0.2,0.2,0.5,0.1,0.6-0.2c0.1-0.3,0.1-0.6-0.1-0.9c-0.1-0.1-0.2-0.2-0.3-0.3
			c-0.1-0.2-0.1-0.3-0.2-0.5c-0.2-0.4-0.9,0-0.6,0.4c0.1,0.2,0.1,0.4,0.2,0.6c0.1,0.2,0.4,0.3,0.3,0.5c0.2-0.1,0.4-0.1,0.6-0.2
			c-0.1-0.1-0.1-0.4-0.1-0.5c-0.2,0.1-0.5,0.1-0.7,0.2c0.1,0.2,0.1,0.4,0.2,0.5c0.2-0.1,0.5-0.2,0.7-0.3
			C820.2,940.2,820.2,940.2,820.2,940.1c0,0.2,0,0.3,0,0.4c0,0,0,0,0-0.1c-0.1,0.1-0.2,0.2-0.3,0.3c0,0,0,0,0.1,0
			c-0.1,0-0.2-0.1-0.4-0.1c0,0,0,0,0,0C820.1,940.9,820.6,940.4,820.2,940.1L820.2,940.1z"/>
	</g>
</g>
<g>
	<g>
		<path class="st1" d="M819,937.8c0,0,0.1,0,0.1-0.1c0.1,0,0.2,0.1,0.4,0.1c0,0,0,0,0-0.1c0,0.1,0.1,0.2,0.1,0.4c0,0,0,0,0-0.1
			c-0.2,0-0.5,0-0.7,0c0,0.1,0.1,0.2,0.1,0.2c0.2,0.4,0.9,0.3,0.7-0.2c0-0.1-0.1-0.2-0.1-0.2c-0.1-0.3-0.6-0.4-0.7,0
			c-0.2,0.7,0.8,0.8,0.9,0.1C819.8,937.5,819.1,937.3,819,937.8L819,937.8z"/>
	</g>
</g>
<g>
	<g>
		<path class="st1" d="M819.6,937.5c-0.4,0-0.6,0.3-0.8,0.6c-0.1,0.2,0.1,0.5,0.4,0.5c0.1,0,0.2,0,0.3,0.1c0.5,0.2,0.6-0.6,0.2-0.7
			c-0.2-0.1-0.3-0.1-0.5-0.1c0.1,0.2,0.2,0.3,0.4,0.5c0,0,0-0.1,0.1-0.1C820.1,938.2,820.1,937.5,819.6,937.5L819.6,937.5z"/>
	</g>
</g>
<g>
	<g>
		<path class="st1" d="M820.2,939.5c-0.3,0-0.5,0.1-0.7,0.2c0.2,0,0.3,0.1,0.5,0.1c0,0,0-0.1-0.1-0.1c-0.1-0.5-0.9-0.3-0.7,0.2
			c0,0.1,0.1,0.2,0.1,0.3c0.1,0.2,0.3,0.2,0.5,0.1c0.1-0.1,0.2-0.1,0.3-0.1C820.7,940.2,820.7,939.4,820.2,939.5L820.2,939.5z"/>
	</g>
</g>
<g>
	<g>
		<path class="st1" d="M817.1,939.3c0.2,0.2,0.3,0.4,0.6,0.3c-0.1,0-0.2-0.1-0.4-0.1c0,0,0,0.1,0,0.2c0.1,0.5,0.8,0.3,0.7-0.2
			c0-0.2-0.1-0.4-0.2-0.6c-0.2-0.4-0.8-0.1-0.7,0.3c0.1,0.5,0.3,0.9,0.5,1.3c0.2,0.5,0.9,0.3,0.7-0.2c-0.1-0.4-0.4-0.9-0.5-1.3
			c-0.2,0.1-0.5,0.2-0.7,0.3c0.1,0.1,0.1,0.2,0.1,0.4c0.2-0.1,0.5-0.1,0.7-0.2c-0.1-0.2-0.1-0.3-0.2-0.5c-0.1-0.1-0.2-0.1-0.4-0.1
			c0,0,0,0,0,0c0.1,0,0.2,0,0.3,0c0,0-0.1-0.1-0.1-0.1C817.3,938.5,816.7,939,817.1,939.3L817.1,939.3z"/>
	</g>
</g>
<g>
	<g>
		<path class="st1" d="M817.7,939.5C817.7,939.5,817.7,939.5,817.7,939.5c-0.2-0.1-0.3-0.1-0.5-0.1c0,0,0,0,0,0c0-0.1,0-0.2,0-0.3
			c0,0.1,0,0.2,0,0.3c0.1,0.3,0.5,0.4,0.7,0.1c0,0,0,0,0,0c-0.2,0-0.4,0.1-0.6,0.1c0,0,0,0,0,0c0.2,0.2,0.6,0.1,0.6-0.3
			c0,0,0-0.1,0-0.1c-0.2,0-0.5,0.1-0.7,0.1c0.1,0.2,0.1,0.4,0.2,0.6c0.2,0.4,0.8,0.1,0.6-0.4c-0.1-0.2-0.1-0.3-0.2-0.5
			c-0.1-0.4-0.7-0.3-0.7,0.1c0,0,0,0.1,0,0.1c0.2-0.1,0.4-0.2,0.6-0.3c0,0,0,0,0,0c-0.2-0.1-0.5-0.2-0.6,0.1c0,0,0,0,0,0
			c0.2,0,0.5,0.1,0.7,0.1c0.1,0.3,0-0.1,0-0.2c-0.1-0.2-0.3-0.3-0.5-0.1c0,0,0,0,0,0C816.9,939.1,817.3,939.8,817.7,939.5
			L817.7,939.5z"/>
	</g>
</g>
<g>
	<g>
		<path class="st1" d="M817.5,940.1c0.1,0,0.1,0,0.2,0c-0.1-0.1-0.1-0.1-0.2-0.2c0.1,0.1,0,0.4,0,0.5c0,0.5,0.7,0.5,0.8,0
			c0-0.6,0-1.1-0.7-1.1C817.1,939.4,817.1,940.1,817.5,940.1L817.5,940.1z"/>
	</g>
</g>
<g>
	<g>
		<path class="st1" d="M1106.2,937.3c0,0.1,0,0.2,0,0.3c0,0,0,0.1,0,0.1c0,0.1,0,0.1,0-0.1c0.1-0.1,0.2-0.2,0.3-0.3c0,0,0,0,0,0
			c-0.4,0.2-0.3,0.9,0.2,0.7c0.5-0.2,0.2-0.5,0.3-0.8C1107,936.8,1106.2,936.8,1106.2,937.3L1106.2,937.3z"/>
	</g>
</g>
<g>
	<g>
		<path class="st1" d="M1106.3,938.2C1106.3,938.2,1106.3,938.2,1106.3,938.2c0.3,0.3,0.7,0.1,0.7-0.2c0,0,0,0,0,0
			c0.1-0.5-0.6-0.5-0.7-0.1c0,0.1-0.1,0.1-0.1,0.2c-0.1,0.5,0.6,0.7,0.7,0.2c0-0.1,0-0.2,0.1-0.2c-0.2,0-0.5-0.1-0.7-0.1
			c0,0,0,0,0,0c0.2-0.1,0.4-0.2,0.6-0.3c0,0,0,0-0.1-0.1C1106.5,937.3,1105.9,937.8,1106.3,938.2L1106.3,938.2z"/>
	</g>
</g>
<g>
	<g>
		<path class="st1" d="M1106.1,938.1c0,0.1,0,0.1,0,0.2c-0.1,0.5,0.6,0.7,0.7,0.2c0-0.1,0.1-0.3,0.1-0.4
			C1106.9,937.7,1106.2,937.7,1106.1,938.1L1106.1,938.1z"/>
	</g>
</g>
<g>
	<g>
		<path class="st1" d="M1106,938.5c0,0,0,0.1,0,0.1c-0.1,0.5,0.6,0.7,0.7,0.2c0.1-0.2,0.1-0.3,0-0.5
			C1106.6,937.9,1105.9,938.1,1106,938.5L1106,938.5z"/>
	</g>
</g>
<g>
	<g>
		<path class="st1" d="M1105.2,941.3C1105.3,941.4,1105.3,941.4,1105.2,941.3c0.2,0.2,0.5,0.2,0.7,0c0.1-0.1,0.1-0.3,0.2-0.4
			c0.2-0.4-0.4-0.8-0.6-0.4c-0.1,0.1-0.1,0.3-0.2,0.4c0.2,0,0.4-0.1,0.6-0.1c-0.2-0.2-0.3-0.3-0.6-0.3
			C1104.8,940.6,1104.8,941.4,1105.2,941.3L1105.2,941.3z"/>
	</g>
</g>
<g>
	<g>
		<path class="st1" d="M1105.1,941.5c0.2,0.1,0.3,0.2,0.5,0.1c-0.2-0.2-0.3-0.3-0.5-0.5c0,0,0,0.1,0,0.1c0,0.3,0.3,0.6,0.6,0.4
			c0.1-0.1,0.2-0.2,0.3-0.3c0.2-0.4-0.4-0.8-0.6-0.4c-0.1,0.1-0.1,0.1,0,0.1c0.2,0.1,0.4,0.3,0.6,0.4c0,0,0-0.1,0-0.1
			c0-0.3-0.2-0.6-0.5-0.5c0,0,0.1,0,0.1,0C1105,940.6,1104.6,941.3,1105.1,941.5L1105.1,941.5z"/>
	</g>
</g>
<g>
	<g>
		<path class="st1" d="M1105.4,940.7C1105.4,940.7,1105.4,940.8,1105.4,940.7c0,0,0-0.1,0-0.2c-0.1,0.7,0.8,0.6,0.9,0
			c0-0.5-0.7-0.5-0.8,0c0,0,0,0,0,0c0.1-0.1,0.2-0.1,0.3-0.2c0,0,0,0,0,0c0.1,0,0.2,0.1,0.3,0.1c0,0,0,0,0,0c0,0.1,0.1,0.2,0.1,0.3
			c0-0.2,0-0.3-0.2-0.4C1105.6,939.9,1105,940.4,1105.4,940.7L1105.4,940.7z"/>
	</g>
</g>
<ellipse class="st3" cx="963.8" cy="667" rx="161.4" ry="14.5"/>
<path class="st4" d="M1105.9,433c0,0-49.6-12.2-89.7,10.4S960,515,960,515s50.6,11.9,90.6-10.7C1090.6,481.8,1105.9,433,1105.9,433z
	"/>
<path class="st4" d="M963.8,551.2c0,0-9.7-50.2-47-77c-37.3-26.9-88.6-21-88.6-21s10.4,50.9,47.7,77.8S963.8,551.2,963.8,551.2z"/>
<path class="st4" d="M960,249l192.7-118.4c-37.8-27.8-92.7-39.2-147.6-30.5c-95,15-163.9,85.6-152.8,156.5
	c11.2,70.8,98.5,116.8,193.5,101.8c76.6-12.1,138.5-60.7,151.5-118.9L960,249z"/>
<ellipse transform="matrix(0.7071 -0.7071 0.7071 0.7071 133.1441 674.3074)" class="st5" cx="880.5" cy="176.4" rx="23" ry="15"/>
<rect x="949.6" y="341" class="st4" width="28.4" height="326"/>
<g>
	<g>
		<path class="st6" d="M952.8,524.9c-2.2-1.1-4-4.8-6.8-3c-0.8,0.5-1,1.6-0.3,2.4c1.7,1.9,3.4,3.5,5.3,5.1c1,0.8,2.5,0.3,2.6-1.1
			c0-1.7-1.2-3.3-3.2-3c-2.9,0.5-2.7,3.9-2.1,6c0.5,1.7,2.9,1.3,2.9-0.4c0.1-1.2,0.1-2.5,0.2-3.7c0.1-1.9-2.9-1.9-3,0
			c-0.2,3.6-0.4,7.2-0.4,10.9c0,3.6,0.7,8-0.3,11.4c-0.3,1,0.5,1.8,1.4,1.9c2.1,0.2,3.9,0.1,6-0.4c1.9-0.4,1.1-3.3-0.8-2.9
			c-1.7,0.5-3.4,0.5-5.2,0.2c0.5,0.6,1,1.3,1.4,1.9c1-3.3,0.4-6.8,0.4-10.2c0-4.3,0.2-8.6,0.4-12.8c-1,0-2,0-3,0
			c-0.1,1.2-0.1,2.5-0.2,3.7c1-0.1,2-0.3,2.9-0.4c-0.2-0.7-0.4-1.5-0.7-2.2c0.9-0.4,1.7-0.7,2.6-1.1c-1.9-1.6-3.6-3.3-5.3-5.1
			c-0.1,0.8-0.2,1.6-0.3,2.4c-0.6,0.4,3.6,3,3.7,3C953,528.3,954.5,525.7,952.8,524.9L952.8,524.9z"/>
	</g>
</g>
<g>
	<g>
		<path class="st6" d="M952,525.5c0-0.8-0.1-1.6-0.3-2.4c-0.2-0.8-1-1.3-1.8-1c-0.8,0.2-1.3,1.1-1,1.8c0.2,0.6,0.2,1,0.2,1.6
			c0,0.8,0.7,1.5,1.5,1.5C951.4,527,951.9,526.3,952,525.5L952,525.5z"/>
	</g>
</g>
<g>
	<g>
		<path class="st6" d="M983.5,491.5c0.2-3.1-2.1-6.2-5.5-5.5c-0.5,0.1-0.9,0.6-1,1c-1,3.6,0,8.3,0.1,12.1c0.2,5.4,0.3,10.7-0.6,16
			c-0.3,1.9,2.6,2.7,2.9,0.8c0.8-4.4,0.9-8.7,0.9-13.1c-0.1-2.4-0.2-4.8-0.3-7.3c0-1.2-0.1-2.4-0.1-3.6c-0.4-2.3-0.1-2.4,0.7-0.4
			C980.3,493.4,983.3,493.4,983.5,491.5L983.5,491.5z"/>
	</g>
</g>
<g>
	<g>
		<path class="st6" d="M951.7,335c0.1,1.6,0,3.2-0.2,4.8c1,0.6,1.4,0.6,1.2-0.1c-0.5-0.5-0.2-1.2-0.9-1.7c-1.1-0.8-2.5-0.5-3.3,0.5
			c-0.9,1.2-0.5,2.6,0.5,3.6c2,1.9,5.9,0.6,8.2,0.4c4.5-0.3,9.1-0.2,13.6,0.3c1.9,0.2,6.4,2,8.1,0c3.2-3.8-2.9-5.4-5.5-4.9
			c-1.3,0.3-1.4,2.1-0.4,2.7c3,1.7,6.2,2.2,7.7-1.5c0.7-1.8-2.2-2.6-2.9-0.8c-1.1-0.1-2.2-0.2-3.3-0.3c-0.1,0.9-0.2,1.8-0.4,2.7
			c1.7-0.3-3.7-1-4.3-1.1c-3-0.3-6-0.4-9.1-0.4c-2.7,0-5.5,0.1-8.1,0.6c-1.7,0.3-3.5,0.4-2.4,2.3c0.3,0.5,0.8,0.8,1.3,0.7
			c3.7-0.1,3.2-5.4,3.2-7.9C954.7,333.1,951.7,333.1,951.7,335L951.7,335z"/>
	</g>
</g>
<g>
	<g>
		<path class="st6" d="M976.4,340.9c-0.4,1.5,0.3,2.3,0.8,3.7c0.6,1.7,0.1,4.1-0.2,5.9c-0.3,1.9,2.6,2.7,2.9,0.8
			c0.3-1.8,0.5-3.6,0.5-5.4c0-0.6,0-1.3-0.2-1.9c-0.2-0.6-1.1-1.6-0.9-2.2C979.7,339.8,976.9,339,976.4,340.9L976.4,340.9z"/>
	</g>
</g>
<line class="st2" x1="851.2" y1="470" x2="926" y2="522.8"/>
<line class="st2" x1="892" y1="477.5" x2="893.3" y2="499.7"/>
<line class="st2" x1="864" y1="488.6" x2="877.6" y2="488.6"/>
<line class="st2" x1="891" y1="518.2" x2="910.6" y2="511.9"/>
<line class="st2" x1="1077" y1="447.8" x2="996.1" y2="490.8"/>
<line class="st2" x1="1051.8" y1="480.9" x2="1031.4" y2="472.1"/>
<line class="st2" x1="1054.6" y1="450.9" x2="1048.4" y2="463"/>
<line class="st2" x1="1016" y1="461.7" x2="1012.8" y2="482"/>
<ellipse transform="matrix(0.8368 -0.5475 0.5475 0.8368 14.6706 525.326)" class="st5" cx="888.6" cy="238.1" rx="23" ry="15"/>
<ellipse transform="matrix(0.8368 -0.5475 0.5475 0.8368 54.5977 550.5003)" class="st5" cx="950.8" cy="183.7" rx="23" ry="15"/>
<ellipse transform="matrix(0.8368 -0.5475 0.5475 0.8368 -17.8494 539.4557)" class="st5" cx="896" cy="299.7" rx="23" ry="15"/>
<ellipse transform="matrix(0.8368 -0.5475 0.5475 0.8368 89.8388 544.3023)" class="st5" cx="958" cy="121.4" rx="23" ry="15"/>
<ellipse transform="matrix(0.8368 -0.5475 0.5475 0.8368 76.3118 587.8304)" class="st5" cx="1024.3" cy="165.9" rx="23" ry="15"/>
<ellipse transform="matrix(0.9181 -0.3964 0.3964 0.9181 42.641 419.6701)" class="st5" cx="1036.5" cy="106.7" rx="23" ry="15"/>
<ellipse transform="matrix(0.8368 -0.5475 0.5475 0.8368 -1.4931 575.3024)" class="st5" cx="964.3" cy="290.2" rx="23" ry="15"/>
<ellipse transform="matrix(0.8368 -0.5475 0.5475 0.8368 -21.6943 607.1673)" class="st5" cx="1007.7" cy="340" rx="23" ry="15"/>
<ellipse transform="matrix(0.8368 -0.5475 0.5475 0.8368 12.729 623.018)" class="st5" cx="1051.5" cy="290.2" rx="23" ry="15"/>
<ellipse transform="matrix(0.8368 -0.5475 0.5475 0.8368 1.1453 660.3809)" class="st5" cx="1108.4" cy="328.3" rx="23" ry="15"/>
<path class="st7" d="M1178.8,260.6L961.6,260c-5.6,0-7.5-4.8-4.1-10.7l0.2-0.4c3.4-5.8,10.9-10.7,16.7-10.9l222-7.6
	c11.1-0.4,16.5,6.1,11.6,14.5l-0.3,0.5C1202.8,253.9,1189.7,260.7,1178.8,260.6z"/>
<path class="st7" d="M1143.9,151.5L963.1,257.3c-4.7,2.7-8.6-0.4-8.6-6.9v-0.4c0-6.5,3.9-14.3,8.6-17.2l180.7-114.9
	c9.1-5.8,16.7-2.9,16.7,6.4v0.6C1160.5,134.1,1152.9,146.2,1143.9,151.5z"/>
<g>
	<g>
		<path d="M819,940.8c-0.2-0.6-0.3-1.3-0.3-1.9c0-0.5-0.8-0.5-0.8,0c0.1,0.7,0.2,1.4,0.4,2.1C818.4,941.4,819.1,941.2,819,940.8
			L819,940.8z"/>
	</g>
</g>
<g>
	<g>
		<path class="st0" d="M822.5,930c-1.6,1.8-3.2,3.4-3.8,5.8c-0.2,1-0.1,1.9,0.1,2.9c0.3,1.2,0.2,2.2,0.8,3.3
			c0.9,1.7,3.4,0.2,2.6-1.5c-0.5-1-0.7-3.6-0.4-4.4c0.5-1.6,1.7-2.7,2.8-3.9C826,930.7,823.8,928.6,822.5,930L822.5,930z"/>
	</g>
</g>
<g>
	<g>
		<path class="st0" d="M820.2,939.6c0,0.1,0.1,0.4,0,0.2c0,0-0.1,0.2,0,0.1c0,0.1-0.2,0.3-0.1,0.2c-0.1,0.1-0.2,0.2-0.3,0.4
			c-0.3,0.4-0.4,0.8-0.3,1.3c0,0.2,0.1,0.4,0.2,0.6c0.1,0.1,0.1,0.3,0,0c0-0.3,0-0.5,0-0.8c0,0,0,0.1,0,0.1c-0.2,0.8,0.3,1.7,1,1.8
			c0.8,0.2,1.6-0.2,1.8-1c0.2-0.7-0.1-1.1-0.4-1.6c0.1,0.3,0.1,0.5,0.2,0.8c0,0,0-0.1,0-0.1c-0.1,0.3-0.1,0.5-0.2,0.8
			c-0.1,0.1-0.1,0.1,0,0c0.1-0.1,0.2-0.3,0.3-0.4c0.1-0.2,0.2-0.3,0.3-0.5c0.2-0.5,0.4-1.1,0.3-1.6c-0.1-0.8-0.6-1.5-1.5-1.5
			C821,938.1,820.2,938.7,820.2,939.6L820.2,939.6z"/>
	</g>
</g>
<g>
	<g>
		<path class="st0" d="M818.7,935.7c0.1-0.1,0.1-0.2,0.2-0.2c-0.5,0.6-0.6,1.5,0,2.1c0.5,0.5,1.6,0.6,2.1,0c0.3-0.3,0.5-0.7,0.6-1.1
			c0.1-0.8-0.2-1.7-1-1.8C819.8,934.5,818.8,934.9,818.7,935.7L818.7,935.7z"/>
	</g>
</g>
<g>
	<g>
		<path class="st0" d="M831.4,924.9c3.3-1.3,6.7-2,9.8-3.6c1.1-0.6,1.7-1,2.1-2.1c0.3-1,0.6-3.4,0.1-4.4c-1.3-2.3-3.2-0.2-4.1,1.1
			c-1,1.4-2.3,2.2-3.5,3.4c-1.5,1.7-2,3.6-4.2,4.5c-1.2,0.5-0.8,2.5,0.4,2.7c4.8,1,8.5-4.9,12.9-5.4c1.9-0.2,1.9-3.2,0-3
			c-2.2,0.2-3.7,1.2-5.5,2.3c-1.4,0.9-4.9,3.6-6.6,3.2c0.1,0.9,0.2,1.8,0.4,2.7c2.3-1,3.1-2.7,4.5-4.6c0.3-0.4,5.4-4.6,4-5.1
			c-0.3-0.3-0.7-0.7-1-1c0.6,2.8-1.3,3.5-3.7,4.2c-2.2,0.6-4.2,1.3-6.3,2.1C828.9,922.8,829.6,925.7,831.4,924.9L831.4,924.9z"/>
	</g>
</g>
<g>
	<g>
		<path class="st0" d="M988,916c2.5,0.7,4.9,1.2,7.5,1.4c3.3,0.3,7.2-0.5,10.4,0.3c4.9,1.2,8.3,3.2,13.6,3c1.6-0.1,2.1-2.6,0.4-2.9
			c-3.1-0.6-6.2-1.3-9.3-1.9c-1.9-0.4-2.7,2.5-0.8,2.9c3.1,0.7,6.2,1.2,9.3,1.6c2.9,0.4,7.8-0.3,10.4,1.1c1.7,0.9,3.2-1.7,1.5-2.6
			c-2.3-1.2-4.9-0.9-7.5-1.1c-4.4-0.3-8.7-1-13-1.9c-0.3,1-0.5,1.9-0.8,2.9c3.1,0.6,6.2,1.3,9.3,1.9c0.1-1,0.3-2,0.4-2.9
			c-5.4,0.3-9.5-2.6-14.6-3.1c-5.5-0.6-10.6,0-16.1-1.4C986.9,912.6,986.1,915.5,988,916L988,916z"/>
	</g>
</g>
<g>
	<g>
		<path class="st0" d="M1030.7,921.8c8.9,0.6,17.8,1.3,26.3,4.2c1.8,0.6,2.6-2.3,0.8-2.9c-8.7-3.1-17.9-3.8-27.1-4.4
			C1028.8,918.7,1028.8,921.7,1030.7,921.8L1030.7,921.8z"/>
	</g>
</g>
<g>
	<g>
		<path class="st0" d="M1085.7,928.4c-1,1.9-3.3,10,1.3,9.5c5.1-0.5,1.5-12.4,1.6-12.4c-0.6-0.2-1.1-0.5-1.7-0.7
			c2.3,3.9,0.1,8.8,1.3,12.7c0.4,1.2,1,1.8,2.3,1.6c1.5-0.2,3.3-2.2,3.8-3.6c0.3-0.9,0.2-1.8,0-2.7c-0.2-1-2.2-4.7-1.8-5.5
			c-0.9-0.3-1.9-0.5-2.8-0.8c0.2,4.1-0.8,9.3,0.4,13.3c0.1,0.5,0.5,1,1,1c2.5,0.3,3.1-1.8,3.2-4c0-2.4-0.6-4.8-0.7-7.2
			c-0.1-3-0.1-6.1,0.2-9.1c-0.9,0.3-1.9,0.5-2.8,0.8c1.3,2.3,1.4,7.3,1.7,9.8c0.4,3.3-0.2,6.2-0.6,9.4c-0.1,1.2,1.8,2,2.6,1.1
			c1.1-1.4,1-3.2,1-5c0.1-4-0.1-7.8,1-11.7c-1,0-1.9,0-2.9,0c0.8,5.1,1.8,10.6,0.9,15.7c-0.4,1.9,2.2,2.6,2.9,0.8
			c2.1-5.1,1.2-12.3,1.5-17.8c-1,0.1-2,0.3-2.9,0.4c0.9,3.4,1.7,6.8,0.9,10.3c-0.5,2.3-0.7,4.7-1.2,7c-0.4,1.9,2.2,2.6,2.9,0.8
			c0.9-2.3,1.1-4.5,1.1-7c0-1.2,0.1-2.4,0.2-3.6c0.1-0.8,0.1-1.5,0.2-2.3c0.7-1.2,0.5-1.7-0.5-1.6c-0.1-0.3-0.7,0.1,0.2,0.9
			c0.4,0.3,1.1,0.7,1.6,0.8c1.8,0.4-0.7-1.1-1.7-1c-0.7,0.1-1.2,0.4-1.4,1.1c-0.5,1.4,0.5,2.6,1.2,3.7c1.1,1.6,3.7,0.1,2.6-1.5
			c-0.3-0.5-0.6-0.9-0.9-1.4c-0.5,0.4-1,0.7-1.4,1.1c1.7-0.2,4.7,4.3,6.2,0.8c1.3-2.9-2-4.8-3.7-6.2c-1.5-1.2-3.1-2.9-4.5-0.6
			c-0.9,1.5-0.8,5.2-0.9,6.8c-0.2,3.1,0.1,6.1-1.1,9c1,0.3,1.9,0.5,2.9,0.8c1.5-6.8,2.1-12.1,0.3-19c-0.4-1.7-2.9-1.3-2.9,0.4
			c-0.2,5.1,0.6,12.2-1.4,17c1,0.3,1.9,0.5,2.9,0.8c1-5.7,0-11.6-0.9-17.3c-0.2-1.5-2.5-1.3-2.9,0c-0.7,2.4-1,4.7-1.1,7.1
			c-0.1,1.7,0.8,7-0.2,8.2c0.9,0.4,1.7,0.7,2.6,1.1c0.4-3.8,1-7,0.4-10.8c-0.5-3.2-0.3-7.2-1.9-10c-0.8-1.4-2.7-0.7-2.8,0.8
			c-0.4,4.5-0.4,9.3,0.2,13.8c0.2,1.2,0.1,1.6,1.1,2.3c1.8,1.3,0.8-1.3,0.8-2.5c0-2.6,0-5.2-0.1-7.8c-0.1-1.4-2.1-2.2-2.8-0.8
			c-0.4,0.9-0.6,1.6-0.5,2.5c0.1,0.8,1.3,3,1.5,3.6c0.4,1.3,0.3,7.4,0.3,4.4c0-3.9,0.4-9.5-1.7-13c-0.4-0.6-1-0.8-1.7-0.7
			c-1.6,0.3-2.1,1.5-2.1,3c-0.1,1.2,0.5,2.5,0.7,3.7c0.3,1.2,0.5,2.5,0.5,3.8c0.6-1,1.1-2.1,1.5-3.3
			C1089.2,928.2,1086.6,926.7,1085.7,928.4L1085.7,928.4z"/>
	</g>
</g>
<g>
	<g>
		<path class="st0" d="M1104.8,933.3c-0.2,1.7-1.2,3.2-1.8,4.8c-0.3,0.9-0.7,3.7-1.5,4.3c0.5,0,1,0,1.5,0c0.1,0.1,3.3-8.3,3.4-9.2
			c0.1-0.7-0.5-1.2-1.1-1.4c-0.1,0-0.2-0.1-0.3-0.1c-0.5-0.2-1.1,0.1-1.5,0.4c-1.5,1.2-1.6,3.4-2.1,5.1c-0.3,1.2-0.7,2.3-1.1,3.4
			c-0.2,0.6-0.4,1.1-0.6,1.7c-0.1,0.3-0.2,0.5-0.3,0.8c-0.3,0.5-0.2,0.5,0.5,0.1c0.4,0.2,0.9,0.5,1.3,0.7c-1-1.7,1.4-4.8,2.1-6.3
			c0.7-1.7,1-3.4,1.1-5.3c0-1.4-1.6-1.8-2.6-1.1c-2.8,2.3-2.8,6.3-3.8,9.5c1,0.1,2,0.3,2.9,0.4c-0.1-2.7,0.1-5.4,0.5-8.1
			c0.3-1.9-2.6-2.7-2.9-0.8c-0.5,3-0.8,5.9-0.6,8.9c0.1,1.7,2.5,2,2.9,0.4c0.8-2.6,0.8-6.4,3-8.2c-0.9-0.4-1.7-0.7-2.6-1.1
			c-0.1,3.4-2.1,5.6-2.9,8.7c-0.4,1.4-0.7,4.5,1.1,5.1c1.7,0.5,2.5-1.4,3-2.6c0.6-1.4,1.1-2.8,1.5-4.2c0.4-1.3,0.6-4.2,1.7-5.1
			c-0.5,0.1-1,0.3-1.5,0.4c0.1,0,0.2,0.1,0.3,0.1c-0.4-0.5-0.7-1-1.1-1.4c-0.2,2.6-2.2,4.6-2.9,7c-0.4,1.4-0.6,4,1,4.8
			c0.5,0.2,1.1,0.3,1.5,0c1.6-1.1,2-3.3,2.5-5c0.7-2.3,2-4.2,2.2-6.6C1108,931.4,1105,931.4,1104.8,933.3L1104.8,933.3z"/>
	</g>
</g>
<g>
	<g>
		<path class="st0" d="M1101.9,940.5c0.1,1,0.3,2,1.3,2.5c0.8,0.4,2,0.1,2.2-0.9c0.1-0.3,0.1-0.5,0.1-0.8c-0.1,0.3-0.1,0.5-0.2,0.8
			c-0.1,0.3-0.3,0.4,0.1,0c0.2-0.2,0.3-0.3,0.5-0.5c0.2-0.4,0.4-0.9,0.5-1.4c0.3-1,0.6-2.1,0.8-3.1c0.4-1.9-2.4-2.7-2.9-0.8
			c-0.3,1.1-0.5,2.1-0.8,3.1c-0.1,0.2-0.1,0.5-0.2,0.7c0.2-0.3-0.1-0.1-0.2,0c-0.3,0.3-0.4,0.9-0.5,1.2c0.7-0.3,1.5-0.6,2.2-0.9
			c0.1,0,0.1,0.1,0.2,0.1C1104.8,938.6,1101.8,938.6,1101.9,940.5L1101.9,940.5z"/>
	</g>
</g>
<g>
	<g>
		<path class="st0" d="M1103.1,943.3c0.4,0,0.9-0.1,1.2-0.3c0.1-0.1,0.2-0.1,0.3-0.2c0.1-0.1,0.1,0,0,0c0.1,0,0.1,0,0.2,0
			c1.1-0.3,1.5-1.3,1.3-2.4c-0.2-0.8-1.1-1.3-1.8-1c-0.8,0.2-1.2,1-1,1.8c0-0.2,0-0.3,0-0.5c0.1-0.2,0.3-0.4,0.4-0.7
			c0.1-0.1,0.6-0.3,0.2-0.1c-0.2,0.1-0.4,0.1-0.5,0.2c-0.1,0-0.2,0.1-0.2,0.1c-0.3,0.2,0.1,0,0.1,0c-0.8,0-1.5,0.7-1.5,1.5
			C1101.6,942.6,1102.2,943.2,1103.1,943.3L1103.1,943.3z"/>
	</g>
</g>
<g>
	<g>
		<path class="st0" d="M1103.2,941.2C1103.2,941.1,1103.2,941,1103.2,941.2c-0.2,0-0.2,0.4-0.2,0.5c0,0.5,0.2,0.9,0.5,1.2
			c0.6,0.6,1.6,0.6,2.1,0c0.6-0.6,0.6-1.5,0-2.1c0,0,0,0-0.1-0.1c0.1,0.2,0.3,0.4,0.4,0.7c0,0.5,0,0.6,0.1,0.3c0-0.2,0-0.3,0.1-0.5
			c0-0.3,0-0.6-0.1-0.8c-0.2-0.8-1.1-1.3-1.8-1C1103.4,939.5,1103,940.4,1103.2,941.2L1103.2,941.2z"/>
	</g>
</g>
<g>
	<g>
		<path class="st0" d="M1103.5,940.9c-0.2-0.2-0.1-0.5-0.1-0.6c0,0,0-0.1,0.1-0.1c-0.1,0.1-0.1,0.1-0.2,0.2c-0.6,0.6-0.6,1.5,0,2.1
			c0.6,0.6,1.6,0.6,2.1,0c0.5-0.5,0.8-1,0.9-1.7c0.1-0.7-0.2-1.5-0.7-2c-0.6-0.6-1.5-0.6-2.1,0
			C1102.9,939.3,1102.9,940.3,1103.5,940.9L1103.5,940.9z"/>
	</g>
</g>
<g>
	<g>
		<path class="st0" d="M1103.2,940.4C1103.4,940.4,1103.3,940.4,1103.2,940.4c0-0.1,0-0.1,0-0.1c0-0.1,0-0.1,0,0
			c0,0,0.1,0.4,0.2,0.5c0.2,0.3,0.4,0.5,0.7,0.6c0.5,0.2,1,0.2,1.4,0c0.1-0.1,0.3-0.2,0.4-0.3c0.1-0.1,0.6-1.1,0.3-0.4
			c-0.3,0.2-0.6,0.5-0.9,0.7c-0.7,0.2,0.4-0.1,0.5-0.2c0.2-0.1,0.4-0.3,0.5-0.4c0.3-0.4,0.3-0.8,0.4-1.2c-0.1,0.3-0.1,0.5-0.2,0.8
			c0.1-0.3,0.3-0.5,0.4-0.8c0-0.2,0.1-0.4,0.1-0.6c0,0,0-0.1,0-0.1c0-0.3,0-0.2-0.1,0.2c-0.9,0-1.7,0-2.6,0c0,0,0,0.1,0.1,0.1
			c0.4,0.7,1.3,1,2.1,0.5c0.7-0.4,1-1.4,0.5-2.1c0,0,0-0.1-0.1-0.1c-0.6-0.9-2.1-1.1-2.6,0c-0.2,0.4-0.3,0.6-0.3,1
			c0,0.1,0,0.2,0,0.3c0,0.2,0,0.2,0,0.1c0,0,0.1-0.3,0,0c-0.1,0.2-0.2,0.5-0.2,0.8c0,0.2,0,0.1,0-0.1c0.2-0.3,0.5-0.6,0.7-0.9
			c0,0,0,0-0.1,0c0.3-0.1,0.5-0.1,0.8-0.2c-0.8,0-1.4,0.5-1.6,1.2c0.2-0.3,0.5-0.6,0.7-0.9c0,0-0.1,0-0.1,0c0.4-0.1,0.8-0.1,1.2-0.2
			c0,0-0.1,0-0.1,0c0.3,0.2,0.6,0.5,0.9,0.7c0.3,0.5-0.2-0.4-0.1-0.3c-0.1-0.1-0.2-0.3-0.3-0.4c-0.2-0.3-0.5-0.5-0.9-0.7
			c-0.7-0.4-1.6-0.2-2.1,0.5C1102.2,939,1102.5,940,1103.2,940.4L1103.2,940.4z"/>
	</g>
</g>
<g>
	<g>
		<path d="M1106.2,942.3C1106.2,942.3,1106.2,942.3,1106.2,942.3c0.1,0,0.2,0,0.3-0.1c0,0,0,0,0,0c0.1,0.1,0.2,0.2,0.3,0.4
			c0-0.2,0.1-0.4,0.1-0.5c0.1-0.3-0.3-0.6-0.6-0.4c-0.2,0.1-0.2,0.2-0.3,0.4c0,0.1,0,0.4,0,0.4c-0.4,0.3,0,0.9,0.4,0.6
			c0.2-0.1,0.2-0.2,0.3-0.4c0-0.1,0.1-0.4,0-0.4c-0.2-0.1-0.4-0.3-0.6-0.4c-0.1,0.2-0.2,0.5-0.1,0.7c0,0.2,0.1,0.3,0.3,0.4
			c0,0,0,0,0,0c0.1,0,0.3,0,0.4-0.1c0,0,0,0,0,0C1107.1,942.5,1106.5,942,1106.2,942.3L1106.2,942.3z"/>
	</g>
</g>
<g>
	<g>
		<path d="M1106.6,942.7c0.2-0.7,0.5-1.4,0.6-2.1c0.1-0.7,0.1-1.5,0.4-2c0.3-0.4-0.4-0.8-0.6-0.4c-0.4,0.6-0.3,1.3-0.5,1.9
			c-0.2,0.8-0.4,1.6-0.7,2.4C1105.8,943,1106.5,943.2,1106.6,942.7L1106.6,942.7z"/>
	</g>
</g>
<g>
	<g>
		<path d="M1107,938.2C1107,938.3,1107,938.3,1107,938.2c0,0.5,0.8,0.5,0.8,0c0,0,0,0,0,0C1107.7,937.8,1107,937.8,1107,938.2
			L1107,938.2z"/>
	</g>
</g>
<g>
	<g>
		<path class="st0" d="M771.7,695.6c0.1-0.3,0.3-0.6,0.4-0.9c0.6-1.2-0.4-2.5-1.7-2.2c-2.6,0.5-4.5-2.7-7.3-1.1
			c-2.2,1.3-3.7,5.8-3.6,8.1c0.1,1.7,1.4,3.3,3.3,2.5c2.7-1.2,3.1-7,3.7-9.3c-1,0-1.9,0-2.9,0c1.2,3.3,2.4,6.6,5.1,9
			c3.4,3.2,7,5.6,9.8,9.5c0.6-0.7,1.1-1.5,1.7-2.2c-2.9-0.9-6.5-1.5-9.1-3.1c-2.9-1.8-5.4-4.8-7.4-7.6c-0.8,0.6-1.6,1.2-2.4,1.8
			c4,3.3,8.3,6.1,12.9,8.5c1.5,0.7,3.1-1.1,1.8-2.4c-3.3-3-6.5-6-9.8-9c-0.9-0.8-2.7-0.3-2.6,1.1c-0.4,1.1-1.1,1.7-2.2,1.8
			c-1.2,0.3-1.3,1.7-0.7,2.5c2.4,2.8,5.9,6.4,9.8,7c1.9,0.3,2.7-2.6,0.8-2.9c-3.4-0.5-6.4-3.7-8.5-6.2c-0.2,0.8-0.4,1.7-0.7,2.5
			c2.5-0.6,4.7-1.8,4.4-4.7c-0.9,0.4-1.7,0.7-2.6,1.1c3.3,3,6.5,6,9.8,9c0.6-0.8,1.2-1.6,1.8-2.4c-4.4-2.2-8.5-4.9-12.3-8
			c-1.2-1-3.4,0.3-2.4,1.8c2.1,3,4.6,5.8,7.5,8c3.1,2.3,7.1,3,10.8,4.1c1.2,0.4,2.5-1.1,1.7-2.2c-2.1-2.9-4.4-5.5-7.2-7.7
			c-3.7-2.9-5.7-5.6-7.3-10.1c-0.5-1.3-2.5-1.5-2.9,0c-0.3,1.1-1.8,4.4-1.5,5.5c0.6,1.2,0.9,1,1-0.5c0.1-1.6,1-2.6,2.5-2.8
			c0.9,0,2.2,1.1,3.1,1.3c0.9,0.2,1.5,0.1,2.3-0.1c-0.6-0.7-1.1-1.5-1.7-2.2c-0.1,0.3-0.3,0.6-0.4,0.9
			C768.3,695.8,770.8,697.4,771.7,695.6L771.7,695.6z"/>
	</g>
</g>
<g>
	<g>
		<path class="st0" d="M760.1,700.4c0-0.1,0-0.2,0-0.3c0.2-0.3,0.5-0.6,0.7-0.9c-0.1,0.1-0.1,0.1-0.2,0.2c0.4-0.1,0.8-0.1,1.2-0.2
			c-0.1,0-0.2,0-0.2-0.1c-1.4-0.5-2.2,1.1-1.7,2.2c0.7,1.6,1.6,3.1,3,4.2c0.6,0.5,1.2,1,1.9,1.4c0.6,0.4,1.5,0.4,2.1,0.8
			c1.6,1.1,3.1-1.5,1.5-2.6c-0.5-0.4-1.1-0.5-1.6-0.7c-0.6-0.2-1.2-0.7-1.7-1.1c-1.3-1-1.9-2.2-2.6-3.6c-0.6,0.7-1.1,1.5-1.7,2.2
			c1.7,0.5,2.5-1,2.3-2.5C762.7,697.7,759.8,698.5,760.1,700.4L760.1,700.4z"/>
	</g>
</g>
<g>
	<g>
		<path class="st0" d="M767.1,704.8c-0.3-0.1-0.2,0,0.4,0.4c-0.4-0.7-1.4-0.9-2.1-0.5c-0.7,0.4-0.9,1.3-0.5,2.1
			c0.3,0.5,0.8,0.9,1.4,1c0.8,0.1,1.7-0.2,1.8-1C768.3,705.9,767.9,704.9,767.1,704.8L767.1,704.8z"/>
	</g>
</g>
<g>
	<g>
		<path class="st0" d="M770.2,708.4C770.1,708.3,770.3,708.7,770.2,708.4c0.1,0.9,0.7,1.6,1.5,1.6c0.7,0,1.6-0.7,1.5-1.5
			c-0.1-0.6-0.2-1-0.4-1.6c-0.4-0.7-1.4-0.9-2.1-0.5C770,706.8,769.9,707.7,770.2,708.4L770.2,708.4z"/>
	</g>
</g>
<g>
	<g>
		<path class="st0" d="M766.6,704.6c0,0-0.1,0-0.1,0c0.3,0.3,0.7,0.7,1,1c0,0,0-0.1,0-0.1c-0.3-0.8-1-1.3-1.8-1
			c-0.7,0.2-1.3,1.1-1,1.8c0.2,0.7,0.6,0.9,1.2,1.2c0.7,0.3,1.7-0.3,1.8-1C767.8,705.5,767.3,704.9,766.6,704.6L766.6,704.6z"/>
	</g>
</g>
<g>
	<g>
		<path class="st0" d="M766.6,704.2c-0.6-0.1-1.3,0.2-1.7,0.7c-0.5,0.6-0.6,1.5,0,2.1c0.5,0.5,1.6,0.6,2.1,0c0.2-0.2,0.1-0.2-0.2,0
			c-0.3,0.1-0.4,0.1-0.2,0.1c0.8,0.1,1.5-0.7,1.5-1.5C768.1,704.8,767.5,704.3,766.6,704.2L766.6,704.2z"/>
	</g>
</g>
<g>
	<g>
		<path class="st0" d="M768.8,707.4C768.8,707.4,768.8,707.5,768.8,707.4c0.1-0.1,0.2-0.4,0.4-0.6c0,0,0,0-0.1,0.1
			c0.2-0.1,0.4-0.3,0.7-0.4c0.1-0.1,0.8,0.1,0.3-0.1c-0.2-0.1-0.4-0.1-0.6-0.1c0.1,1,0.3,2,0.4,2.9c0,0,0.1,0,0.1,0
			c-0.3,0-0.5,0-0.8,0c0,0,0.1,0,0.1,0c-0.3-0.2-0.6-0.5-0.9-0.7c0,0,0,0.1,0.1,0.1c0.4,0.7,1.3,1,2.1,0.5c0.7-0.4,1-1.4,0.5-2.1
			c-0.4-0.7-1.1-1-1.9-0.8c-1.7,0.4-1.3,3,0.4,2.9c-0.2,0,0.1,0.1,0.2,0.1c0.3,0.1,0.6,0.1,1,0c0.6-0.2,1-0.6,1.2-1.2
			c0.2-0.8-0.2-1.7-1-1.8C769.9,706.2,769,706.6,768.8,707.4L768.8,707.4z"/>
	</g>
</g>
<g>
	<g>
		<path class="st0" d="M761.9,698.5c-0.3,0.1-0.6,0.2-0.9,0.2c-1.3,0.1-1.9,1.5-1.1,2.6c0.2,0.2,0.4,0.4,0.6,0.5
			c0.7,0.4,1.6,0.2,2.1-0.5c0.4-0.7,0.2-1.7-0.5-2.1c0.1,0.1,0.1,0.1,0,0c-0.4,0.9-0.7,1.7-1.1,2.6c0.6,0,1.1-0.1,1.7-0.3
			c0.8-0.2,1.3-1,1-1.8C763.5,698.8,762.7,698.3,761.9,698.5L761.9,698.5z"/>
	</g>
</g>
<g>
	<g>
		<path class="st0" d="M760.1,701.5C760.1,701.6,760.1,701.6,760.1,701.5c0.1-0.3,0.3-0.6,0.4-1c0,0,0,0-0.1,0.1
			c0.9,0.4,1.7,0.7,2.6,1.1c0-0.2,0-0.3,0-0.5c0-0.6-0.4-1.3-1.1-1.4c-0.6-0.1-1.4,0.1-1.7,0.7c0,0.1-0.1,0.2-0.1,0.3
			c-0.3,0.6-0.2,1.3,0.2,1.8c-0.1-0.1-0.1-0.2-0.1,0c0.1,0.8,1.1,1.2,1.8,1c0.8-0.2,1.2-1,1-1.8c-0.1-0.5-0.4-0.9-0.7-1.3
			c0.1,0.6,0.2,1.2,0.2,1.8c0-0.1,0.1-0.2,0.1-0.3c-0.9-0.3-1.9-0.5-2.8-0.8c0,0.2,0,0.3,0,0.5c0.1,1.3,1.6,2,2.6,1.1
			c0.4-0.3,0.5-0.7,0.5-1.2c0.1-0.8-0.7-1.5-1.5-1.5C760.7,700.1,760.2,700.7,760.1,701.5L760.1,701.5z"/>
	</g>
</g>
<g>
	<g>
		<path class="st0" d="M767,695.9c1.6,2.5,4,4.3,5.9,6.5c1.8,2,3,4.4,5.3,6c1.2,0.8,2.9-0.8,2.1-2.1c-3.5-5.1-6.3-10.6-10-15.5
			c-1.1-1.4-3.2,0.4-2.4,1.8c3,5,8.7,8.3,10.9,13.8c0.7,1.7,3.5,1.1,2.9-0.8c-1.5-4.9-4.2-9.6-6.7-14c-1-1.7-3.4-0.2-2.6,1.5
			c1.3,2.7,3.7,4.5,5.1,7c1.3,2.3,1,4.7,3.9,5.6c1.4,0.4,2.6-1.5,1.5-2.5c-3.2-2.8-4.3-7.6-7.1-10.9c-0.7,0.7-1.4,1.4-2.1,2.1
			c3.3,3.2,6,7.5,9.7,10.2c1.6,1.1,3.1-1.5,1.5-2.6c-3.5-2.5-6-6.7-9.1-9.7c-1.4-1.4-3.4,0.7-2.1,2.1c2.8,3.3,3.9,8,7.1,10.9
			c0.5-0.8,1-1.7,1.5-2.5c-1-0.3-1.3-2.6-1.7-3.5c-0.4-0.8-0.9-1.6-1.5-2.3c-1.4-1.8-3.1-3.3-4-5.5c-0.9,0.5-1.7,1-2.6,1.5
			c2.4,4.2,5,8.6,6.4,13.3c1-0.3,1.9-0.5,2.9-0.8c-2.3-5.8-8-9.3-11.2-14.5c-0.8,0.6-1.6,1.2-2.4,1.8c3.6,4.7,6.2,10,9.6,14.9
			c0.7-0.7,1.4-1.4,2.1-2.1c-1.9-1.3-3.1-3.8-4.7-5.5c-1.8-2-4-3.6-5.4-5.9C768.5,692.8,765.9,694.3,767,695.9L767,695.9z"/>
	</g>
</g>
<g>
	<g>
		<path class="st0" d="M781.1,694.5c-0.7-0.6-1.4-1.2-2.3-1.4c-0.7-0.1-1.3,0.1-1.7,0.7c-1.4,1.9,0.5,3.8,1.8,5.3
			c3.2,3.6,7.3,6.7,8,11.8c0.9-0.4,1.7-0.7,2.6-1.1c-2.3-2.9-3.5-5.6-5.3-8.6c-0.4-0.6-1-0.8-1.7-0.7c-0.6,0.2-0.6,0.1,0.1-0.2
			c0.8-0.2,1-0.8,0.6-1.7c0.2-1.3,0.1-2.9,0.2-4.3c-0.9,0.4-1.7,0.7-2.6,1.1c3.2,3.9,5.3,8.6,8,12.8c1,1.6,3.6,0.1,2.6-1.5
			c-1.1-1.7-2.2-3.4-3.5-5.1c-0.7-0.8-1.3-1.6-2-2.4c-0.5-0.6-2.4-3.5-2-1.8c0.4,1.8,1.9,4,2.8,5.7c1.2,2.3,2.5,4.6,3.9,6.7
			c0.7,1.1,3,0.8,2.8-0.8c-0.6-6.3-4.2-12.9-7.1-18.4c-0.9,0.5-1.7,1-2.6,1.5c3.5,5.2,7.2,10.6,10.1,16.1c0.8,1.5,3.1,0.5,2.7-1.2
			c-1.5-6-2.9-11.9-4.4-17.9c-0.4-1.6-3-1.3-2.9,0.4c0.1,3.3,0.8,6.3,1.7,9.5c0.8-0.5,1.7-1,2.5-1.5c-1.4-1.2-2.6-2.5-3.8-3.9
			c-0.8-0.9-2.2-0.3-2.5,0.7c-0.6,1.8,1.1,3.6,2,5c1,1.6,3.6,0.1,2.6-1.5c-0.1-0.1-1.8-2.5-1.7-2.7c-0.8,0.2-1.7,0.4-2.5,0.7
			c1.2,1.4,2.4,2.7,3.8,3.9c1.1,1,2.9,0,2.5-1.5c-0.8-2.9-1.5-5.7-1.6-8.7c-1,0.1-2,0.3-2.9,0.4c1.5,6,2.9,11.9,4.4,17.9
			c0.9-0.4,1.8-0.8,2.7-1.2c-2.9-5.5-6.6-11-10.1-16.1c-1.1-1.6-3.5-0.2-2.6,1.5c2.7,5,6.1,11.1,6.7,16.8c0.9-0.3,1.9-0.5,2.8-0.8
			c-2.5-3.8-4.3-7.8-6.4-11.8c-1.1-2.1-1.9-3.8-4.4-3.3c-0.5,0.1-0.9,0.6-1,1c-0.7,1.9-0.4,3.6,0.7,5.3c1.9,3.1,4.8,5.6,6.8,8.8
			c0.9-0.5,1.7-1,2.6-1.5c-2.9-4.5-5.1-9.3-8.5-13.5c-0.9-1.1-2.5-0.1-2.6,1.1c-0.2,2.9-1.8,10,3,9.1c-0.6-0.2-1.1-0.5-1.7-0.7
			c1.9,3.1,3.4,6.3,5.8,9.2c0.8,1,2.7,0.2,2.6-1.1c-0.4-3-1.4-5.4-3.3-7.9c-0.6-0.8-7.2-7.3-7-7.7c-0.6,0.2-1.1,0.5-1.7,0.7
			c0.3,0.2,0.7,0.4,1,0.6C780.4,698,782.5,695.8,781.1,694.5L781.1,694.5z"/>
	</g>
</g>
<g>
	<g>
		<path class="st0" d="M791.6,694.9c1.7,3.5,5.2,5.9,4.3,10.2c0.7-0.3,1.5-0.6,2.2-0.9c-1.7-0.8-1.9-8.1-2.1-9.4
			c-0.9,0.4-1.7,0.7-2.6,1.1c3.5,2.9,5.3,7.3,7,11.4c0.9-0.4,1.8-0.8,2.7-1.2c-1.8-3.1-2.8-6.1-3.8-9.5c-0.4-1.3-0.6-2.2-2.1-2.7
			c-0.5-0.2-1.1,0-1.5,0.4c-3.5,3.4,2.1,11.4,5,13.6c0.9,0.7,2.3-0.2,2.3-1.3c-0.2-4.3-2.1-8.4-2.7-12.7c-1,0.3-1.9,0.5-2.9,0.8
			c1.9,4.6,3.9,9.2,6.1,13.7c0.8,1.6,3.1,0.4,2.7-1.2c-1.3-5.4-2.6-10.8-4.3-16c-1,0.3-1.9,0.5-2.9,0.8c2.4,5.8,5,11.4,8.1,16.9
			c0.8,1.4,3.4,0.5,2.7-1.2c-2.1-5.6-3.8-11.3-5.2-17.2c-1,0.3-1.9,0.5-2.9,0.8c1.9,4.6,3.8,9.2,5.9,13.8c0.7,1.6,3.2,0.4,2.7-1.2
			c-1-3.7-1.8-7.5-2.4-11.2c-1,0.3-1.9,0.5-2.9,0.8c1.6,3.9,3.2,7.8,4.7,11.7c0.7,1.8,3.3,1.1,2.9-0.8c-1.1-5.1-2.2-10.3-3-15.5
			c-1,0.3-1.9,0.5-2.9,0.8c2.1,5.8,5.2,10.7,4.9,17.1c-0.1,1.9,2.9,1.9,3,0c0.3-6.8-2.8-11.7-5-17.9c-0.7-1.9-3.2-1.1-2.9,0.8
			c0.7,5.2,1.8,10.3,3,15.5c1-0.3,1.9-0.5,2.9-0.8c-1.6-3.9-3.1-7.8-4.7-11.7c-0.7-1.8-3.2-1.1-2.9,0.8c0.6,3.8,1.4,7.5,2.4,11.2
			c0.9-0.4,1.8-0.8,2.7-1.2c-2-4.3-3.9-8.7-5.6-13.1c-0.7-1.7-3.3-1.1-2.9,0.8c1.4,5.8,3.1,11.6,5.2,17.2c0.9-0.4,1.8-0.8,2.7-1.2
			c-2.9-5.2-5.5-10.6-7.8-16.2c-0.7-1.7-3.5-1.1-2.9,0.8c1.8,5.3,3.1,10.6,4.3,16c0.9-0.4,1.8-0.8,2.7-1.2c-2.1-4.3-4-8.6-5.8-13
			c-0.7-1.8-3.2-1.1-2.9,0.8c0.6,4,2.4,7.8,2.6,11.9c0.8-0.4,1.5-0.9,2.3-1.3c-2-1.6-2.6-3.8-3.9-5.9c-0.9-1.5-2.3-3.2-1.6-0.3
			c0.8,3,2.3,5.8,3.8,8.5c0.8,1.4,3.4,0.4,2.7-1.2c-1.9-4.6-3.8-9.5-7.8-12.7c-0.9-0.7-2.7-0.4-2.6,1.1c0.3,3.1,0.3,10.4,3.5,12
			c0.8,0.4,2,0.1,2.2-0.9c1.3-5.4-2.3-7.9-4.6-12.5C793.3,691.7,790.7,693.2,791.6,694.9L791.6,694.9z"/>
	</g>
</g>
<g>
	<g>
		<path class="st0" d="M810.3,695.4c1.9,2.5,2.9,4.6,3,7.8c0.1,1.9,0.3,3.3,1.2,4.9c0.8,1.3,2.7,0.7,2.8-0.8
			c0.2-4.6-2.6-8.6-1.3-13.3c-1,0-1.9,0-2.9,0c1.1,5.1,2.2,10.5,4.6,15.1c0.6,1.2,2.4,0.8,2.7-0.4c0.7-2.1,0.6-4.3,0.1-6.5
			c-0.4-1.7-2.9-5.6-2.5-7.1c-0.5,0.4-1,0.7-1.4,1.1c-0.6,0.1,3.4,11.2,4.6,12.6c1.1,1.2,2.7-0.1,2.5-1.5
			c-0.8-5.7-4.7-10.4-4.9-16.3c-0.9,0.3-1.9,0.5-2.8,0.8c2.6,4.1,2.7,10.5,6.8,13.5c1,0.7,2.2-0.3,2.3-1.3c0.2-1.8-0.9-3.7-1.5-5.3
			c-0.8-2.3-1.6-4.5-2.2-6.9c-0.9,0.4-1.8,0.8-2.7,1.2c2.5,4.1,3.9,8.6,5.2,13.1c0.4,1.6,3.1,1.3,2.9-0.4c-0.5-4.6-1.2-9-2.3-13.5
			c-1,0.3-1.9,0.5-2.9,0.8c1.6,4.7,4.1,8.9,5.7,13.6c0.5,1.5,3,1.4,2.9-0.4c-0.3-6.1-2.5-12.2-4-18.1c-0.5-1.9-3.3-1.1-2.9,0.8
			c0.7,3.1,1.8,6.2,2.8,9.2c0.9,2.7,1.4,5.5,2.4,8.2c0.6,1.6,2.8,1.4,2.9-0.4c0.3-4.2-0.2-8.2-1.5-12.2c-0.6-1.8-3.5-1.1-2.9,0.8
			c1.2,3.8,1.6,7.5,1.3,11.4c1-0.1,2-0.3,2.9-0.4c-1-2.6-1.5-5.5-2.4-8.2c-1-3.1-2.1-6.1-2.8-9.2c-1,0.3-1.9,0.5-2.9,0.8
			c1.4,5.6,3.6,11.5,3.9,17.3c1-0.1,2-0.3,2.9-0.4c-1.6-4.6-4.2-8.9-5.7-13.6c-0.6-1.8-3.4-1.1-2.9,0.8c1.1,4.2,1.8,8.4,2.2,12.7
			c1-0.1,2-0.3,2.9-0.4c-1.4-4.8-2.9-9.5-5.5-13.9c-0.9-1.5-3.1-0.5-2.7,1.2c0.4,1.9,1,3.8,1.7,5.7c0.6,1.6,2,4,1.9,5.7
			c0.8-0.4,1.5-0.9,2.3-1.3c-1.8-1.4-2.4-4.6-3.1-6.7c-0.7-2-1.5-4-2.6-5.8c-0.8-1.2-2.9-0.8-2.8,0.8c0.3,6.2,4.2,11.1,5,17.1
			c0.8-0.5,1.7-1,2.5-1.5c-2.6-2.9-2.5-7.4-3.9-10.9c-0.5-1.4-1.3-2.7-2.9-2.5c-0.7,0.1-1.3,0.4-1.4,1.1c-0.3,1.3,0.1,2.5,0.6,3.7
			c1.3,3.2,3.1,6.3,1.9,9.9c0.9-0.1,1.8-0.2,2.7-0.4c-2.2-4.4-3.2-9.6-4.3-14.4c-0.3-1.5-2.5-1.4-2.9,0c-1.3,5,1.5,9.2,1.2,14.1
			c0.9-0.3,1.9-0.5,2.8-0.8c-1.3-2.4-0.6-5-1.2-7.5c-0.5-2-1.8-3.6-3-5.2C811.7,692.3,809.1,693.8,810.3,695.4L810.3,695.4z"/>
	</g>
</g>
<g>
	<g>
		<path class="st0" d="M829,694.9c0.7,2.1,0.8,4.3,1.2,6.4c0.4,2.1,1.3,4,2.1,6c0.5,1.2,2.5,0.8,2.7-0.4c0.4-1.7,0.3-3.2,0-4.9
			c-0.3-1.7-1.6-4.9-0.6-6.4c-0.6,0.2-1.1,0.5-1.7,0.7c0.1,0,0.1,0.1,0.2,0.1c-0.3-0.3-0.7-0.7-1-1c0,0.1,0.1,0.2,0.1,0.3
			c0.7,1.8,3.6,1,2.9-0.8c-0.3-0.8-0.6-1.1-1.4-1.4c-0.6-0.3-1.3,0.2-1.7,0.7c-2.3,3.3,1,8.4,0.2,12c0.9-0.1,1.8-0.2,2.7-0.4
			c-0.9-2.1-1.7-4.2-2-6.5c-0.2-1.8-0.4-3.5-1-5.2C831.3,692.3,828.4,693.1,829,694.9L829,694.9z"/>
	</g>
</g>
<g>
	<g>
		<path class="st0" d="M830.2,696.7c1.1,4.7,1.6,9.1,6.6,11.2c1.6,0.7,3.7-0.2,4.9-1.3c1.6-1.6,1.5-4.7,3-6
			c-1.6,0.4-3.2,0.9-4.9,1.3c0.6,0.1,1.7,1.5,2.5,1.9c0.6,0.3,1.2,0.5,1.8,0.7c1.8,0.6,2,0,0.6-2.1c0.8-1.4,1.7-2.9,2.5-4.3
			c-1.7,1.3-2.6,0.1-1.1,2c-0.7,2.8-1.5,5.6-2.2,8.4c2.9-0.7,5.9-1.2,8.5-2.9c1.1-0.7,2.1-1.6,2.9-2.7c0.5-0.5,0.8-1.1,0.9-1.8
			c1-1.9,0.5-1.7-1.6,0.4c-1.6-0.4-3.2-0.9-4.9-1.3c1.5,1.3,0.7,6,1.9,7.8c1.5,2.3,4.1,3,6.7,2.1c6.1-1.9,7.8-8.5,8-14.1
			c-0.5,1.2-1,2.4-1.5,3.5c0.2-0.2,0.3-0.4,0.5-0.6c-2.8-0.7-5.6-1.5-8.4-2.2c0.4,1.4,0.5,2.8,0.5,4.2c0.3,6.4,10.3,6.4,10,0
			c-0.1-2.3-0.4-4.6-0.9-6.9c-0.7-3.4-6.1-5.1-8.4-2.2c-1.1,1.4-1.7,2.4-1.9,4.1c0,0.9-0.1,1.8-0.1,2.7c-1.7,1.9-1.3,2.5,1.1,1.9
			c1,0.8,2,1.5,3,2.3c-1.2-2.3-0.3-5.7-1.9-8.2c-1.3-2-3.3-3.3-5.7-3c-2.1,0.2-3.6,1.3-4.7,3c-1,1.5-0.7,2.1-2.5,3.1
			c-1.2,0.6-2.9,0.7-4.2,1c-4,1-4.4,5.6-2.2,8.4c5.1,6.5,20.3-1.2,14.2-9.7c-1.5-2.1-3.2-2.2-5.5-2.8c-1.6-0.4-2.7-1.7-4.7-2.2
			c-2.3-0.6-4.2-0.2-5.9,1.5c-1.4,1.4-2,5-2.5,5.6c1.6-0.4,3.2-0.9,4.9-1.3c2.1,0.9,0.6-3.5,0.4-4.2
			C838.4,687.8,828.7,690.5,830.2,696.7L830.2,696.7z"/>
	</g>
</g>
<g>
	<g>
		<path class="st0" d="M867.7,697c0.1-1.4,0.7-2,1.8-2c1.4,0.8,2.9,1.7,4.3,2.5c-0.2-0.3-0.2-0.7-0.1-1c-0.8,1.4-1.7,2.9-2.5,4.3
			c0.2-0.1,0.4-0.2,0.7-0.3c-1.3,0.2-2.6,0.3-3.9,0.5c1.5,0.5,4.1,0.8,5.5,1.7c-0.8-1-1.5-2-2.3-3c0.8,2.4,0,5.5,0,8
			c0,4,5.7,7,8.5,3.5c1.9-2.2,3.9-4.5,5.4-7c1.4-2.3,1.7-4.9,2.7-7.4c-2.8,0.7-5.6,1.5-8.4,2.2c-0.8-1.8-0.9-1.5-0.3,1
			c0.1,1.2,0.1,2.4,0.1,3.6c0,1.6-0.2,3.4,0.2,4.9c0.8,2.7,2.9,4.2,5.7,4.2c7.9-0.1,7.7-8.9,9.6-14.1c-0.8,1-1.5,2-2.3,3
			c0.2-0.1,0.4-0.2,0.6-0.4c-1.7,0-3.4,0-5,0c0.1,0.1-0.7,9.5-0.1,11c2.2,6,11.9,3.4,9.6-2.7c-1.2-3.1,0.6-7.2-0.1-10.5
			c-0.5-2.5-1.9-5.2-4.3-6.4c-2.7-1.4-5.8-0.4-7.4,2.1c-0.6,1-0.8,2.3-1,3.4c-0.1,1-0.3,1.9-0.5,2.9c-1,1.8-0.1,2.6,2.7,2.2
			c0.8,1,1.5,2,2.3,3c-1.1-4.5,1.5-10.7-2.7-14.2c-3-2.6-6.9-1.4-8.4,2.2c-0.6,1.6-0.9,3.4-1.7,5c-1,1.8-2.5,3.4-3.8,5
			c2.8,1.2,5.7,2.4,8.5,3.5c0-3.7,1.3-8.5-0.9-11.9c-1.8-2.8-5.3-3.2-8.3-4c-6.8-1.8-10.9,4.8-6.8,10.7c0.9,1.3,2.5,2.7,4.3,2.5
			c4.6-0.6,7.7-3.3,8.2-8C878.2,690.6,868.2,690.6,867.7,697L867.7,697z"/>
	</g>
</g>
<g>
	<g>
		<path class="st0" d="M901.8,692.1c-0.4-0.3-0.8-0.6-1.1-1.1c-1-1.2-3.3-1.9-4.9-1.3c-5.1,1.9-5.2,6.4-3.6,11.1
			c1.5,4.5,1.2,9.6,5.3,12.6c2,1.4,4.4,0.5,6.1-0.8c2.1-1.6,2.7-4.5,3-7c0.2-1.6,0.3-3.2,0.3-4.8c0-0.9,0.9-5.2-0.5-3.6
			c-2,0.3-4,0.5-6.1,0.8c0.2,0.1,0.3,0.2,0.5,0.3c-0.8-1-1.5-2-2.3-3c2.4,5.9,0.4,19.5,10.6,18.5c8.8-0.9,5.3-15.2,5.4-20.7
			c-2.8,1.2-5.7,2.4-8.5,3.5c3.6,3.5,3,10.8,5.1,15.1c0.9,1.8,3.7,3,5.6,2.3c2.4-0.9,3.8-2.5,4.6-4.9c0.4-1.4,0.6-3,0.6-4.4
			c0-0.6,0-1.2,0-1.7c0.2-2.2-0.3-2.3-1.5-0.4c-1.7,0-3.4,0-5,0c-0.6-0.3,1.5,4.6,1.8,5.1c3.5,5.3,12.2,0.3,8.6-5
			c-2.5-3.7-2.8-10.7-9.3-9.2c-1.9,0.4-3.4,1.8-4.3,3.5c-1.5,3.1,0.7,6.7-0.8,9.7c1-0.8,2-1.5,3-2.3c-0.2,0.1-0.3,0.1-0.5,0.2
			c1.9,0.8,3.8,1.5,5.6,2.3c-1.2-2.5-1.4-6.3-2.3-9.1c-1-3-2-5.8-4.3-8c-3.1-3-8.4-0.8-8.5,3.5c-0.1,3.3,2.1,10.3,0.1,13.2
			c1-0.8,2-1.5,3-2.3c3.1-0.6,2.3-1.3,2-4c-0.2-1.5-0.3-3-0.6-4.4c-0.6-2.7-1.5-4.7-3.7-6.3c-1.7-1.2-4.7-0.8-6.1,0.8
			c-1.6,1.9-2,4.1-2.2,6.5c-0.1,1.4,0.6,8-0.6,8.9c2-0.3,4-0.5,6.1-0.8c1.8,1.3-1.4-8.5-1.4-8.5c-1.2,1.2-2.3,2.3-3.5,3.5
			c0.3-0.1,0.5-0.2,0.8-0.3c-1.6-0.4-3.2-0.9-4.9-1.3c0.3,0.4,0.7,0.8,1.1,1.1C899.7,703.1,906.9,696.1,901.8,692.1L901.8,692.1z"/>
	</g>
</g>
<g>
	<g>
		<path class="st0" d="M917.9,695.4c1.4,4.5,4.3,11.6,9.3,13.1c2.6,0.8,5.4-0.4,6.9-2.6c0.7-1,1.1-2.3,1.4-3.5
			c0.2-0.9,0.3-1.8,0.5-2.7c0.9-2.3,0-2.1-2.5,0.8c-1.2-0.5-2.4-1-3.5-1.5c1.2,1.1,1.4,5.2,1.9,6.7c0.8,2.3,2.3,4.2,4.9,4.5
			c2.3,0.3,4.3-0.8,5.7-2.5c0.8-1,1.3-2.2,1.7-3.4c0.4-1.2,2-3.7-0.2-2.4c4-2.3,2.6-10-2.5-9.3c-5,0.7-9.8,2.2-14.6,3.7
			c-6.1,1.9-3.5,11.6,2.7,9.6c3.8-1.2,7.9-2.9,11.9-3.4c-0.8-3.1-1.7-6.2-2.5-9.3c-1.5,0.9-2.3,1.9-3,3.5c-0.3,0.8-0.5,1.6-0.7,2.5
			c-0.4,1.7-1.1,1.7,0.8,1.3c1.6,0.4,3.2,0.9,4.9,1.3c0,0-0.5-2.9-0.7-3.4c-0.4-1.3-0.8-2.6-1.4-3.8c-1.1-2.3-2.7-3.8-5.3-4
			c-2.3-0.2-4.3,0.9-5.6,2.8c-0.5,0.7-0.9,1.6-1.2,2.4c-0.3,0.8-1.3,4.2-0.4,3.8c1.3-0.2,2.6-0.3,3.9-0.5c1.8,0.7-0.3-1.2-0.8-2.1
			c-0.8-1.4-1.4-2.7-1.9-4.2C925.6,686.7,915.9,689.3,917.9,695.4L917.9,695.4z"/>
	</g>
</g>
<g>
	<g>
		<path class="st0" d="M941.2,693.5c0,3.9,0.2,7.7,1.2,11.5c0.9,3.4,5.9,5.1,8.4,2.2c3.7-4.5,6.5-9.2,8.4-14.7
			c-2.8,0.7-5.6,1.5-8.4,2.2c3.3,4.2,1.8,12.5,8.5,14c2.3,0.5,4.3-0.4,5.9-2c1-1.1,1.6-2.5,2.2-3.8c0.3-0.7,2.8-5.2,0.4-4.3
			c-1.3-0.2-2.6-0.3-3.9-0.5c0.7,0.4,2.5,5.7,3.5,7.3c2.7,4.5,8.9,2.2,9.3-2.5c1-11.1-11.7-19.1-21.4-13.6c-2.8,1.6-3.2,5.6-1,7.9
			c8.3,8.6,21.7,5.2,27.8-4c-3-0.4-6.1-0.8-9.1-1.2c0.7,4.8,0.4,9.6,0.3,14.4c-0.2,4.8,7.2,7.1,9.3,2.5c0.6-1.4,1.2-2.6,1.6-4.1
			c1.7-6.2-8-8.9-9.6-2.7c-0.2,0.6-0.4,1.1-0.5,1.7c3.1,0.8,6.2,1.7,9.3,2.5c0.2-5.8,0.2-11.3-0.6-17.1c-0.6-4.6-7-4.4-9.1-1.2
			c-2.6,4-8.5,5.8-12.1,2c-0.3,2.6-0.7,5.2-1,7.9c1.4-0.8,2.4-0.4,3.8,0.4c2.4,1.2,2.7,2,2.5,4.6c3.1-0.8,6.2-1.7,9.3-2.5
			c-2.6-4.4-6.9-16.7-13.9-9.6c-1.2,1.2-1.9,3-2.5,4.6c-0.3,0.7-1.3,2.4-1.2,3.1c-0.8,1.3-0.2,1.5,2,0.6c2,0.5,2.7,0.2,2.1-1
			c0.5-3.1-3-8.1-4.8-10.3c-2.5-3.2-7.3-1-8.4,2.2c-1.3,3.8-3.2,7.2-5.8,10.3c2.8,0.7,5.6,1.5,8.4,2.2c-0.8-2.9-0.9-5.8-0.9-8.8
			C951.1,687,941.1,687,941.2,693.5L941.2,693.5z"/>
	</g>
</g>
<g>
	<g>
		<path class="st0" d="M981.2,691c-1.2,5.5-2.1,13.3,5,14.9c2.9,0.7,5.9-0.2,8.2-2c1-0.8,1.9-1.7,2.6-2.9c0.6-1.1,0.6-3.7,1.4-4.4
			c-1.2,0.5-2.4,1-3.5,1.5c0.4,0,0.8,0,1.2,0c-1.2-0.5-2.4-1-3.5-1.5c0.7,0.9,0.5,3.5,0.8,4.6c0.3,1.3,0.8,2.7,1.5,3.8
			c1.4,2.1,3.6,3.6,6.2,3.3c2.8-0.3,4.7-2.3,6-4.6c0.7-1.2,1.2-2.6,1.6-3.9c0.4-1,2.4-4.8,0.5-3.6c-1.7,0-3.4,0-5,0
			c0.1,0,0.2,0.1,0.3,0.1c-0.8-1-1.5-2-2.3-3c1.8,4.4-1.4,11.1,3.9,14.1c1.9,1.1,3.9,1,5.8-0.1c2.3-1.4,2.5-4,4.3-5.7
			c-1.2,0.5-2.4,1-3.5,1.5c0.2,0,0.3,0,0.5-0.1c-1.2-0.5-2.4-1-3.5-1.5c0.2,0.6,0.3,1.3,0.4,1.9c1,4.8,8.6,4.8,9.6,0
			c0.4-2.1,0.6-4,0.6-6.2c-0.1-6.4-10.1-6.4-10,0c0.1,1.2,0,2.4-0.2,3.5c3.2,0,6.4,0,9.6,0c-0.7-3.4-2.5-7.7-6.5-7.8
			c-1.5,0-2.9,0.5-4,1.5c-0.9,0.8-1.9,3.9-2.7,4.4c1.7,0,3.4,0,5,0c2.1,1.1,1-5.7,0.7-7.1c-0.4-1.8-1.1-3.4-2.9-4.3
			c-1.5-0.8-3.5-1-5,0c-1.8,1.2-2.7,2.8-3.5,4.8c-0.5,1.1-0.8,2.3-1.2,3.4c-0.2,0.7-1.9,3.3-0.4,2.8c1.3,0.2,2.6,0.3,3.9,0.5
			c-0.3-0.1-1.2-6.6-1.6-7.4c-1.5-2.7-4-4.2-7.1-3.5c-2.7,0.6-4.6,2.6-5.4,5.2c-0.6,1.9-0.9,2.4,0.5,3.8c2,2.1,1.2-1.8,1.6-3.6
			C992.2,687.4,982.5,684.7,981.2,691L981.2,691z"/>
	</g>
</g>
<g>
	<g>
		<path class="st0" d="M1015.2,702.2c1,0,2,0.1,2.9,0.3c-0.9-3.5-1.4-4-1.4-1.6c-0.2,1.1-0.2,2.4,0,3.5c0.6,2.7,2.6,4.4,5.2,5
			c2.8,0.7,5.7-0.1,8-1.9c1.1-0.9,2-2,2.9-3.2c0.4-0.7,0.8-1.3,1.2-2c0.9-1.2,0.7-1.2-0.6-0.1c-1.3-0.2-2.6-0.3-3.9-0.5
			c-1.9-1.2-0.6-2.2,3.7-3.1c-0.4-0.6-0.8-1.2-1.2-1.8c-0.7-1.2-1.2-2.5-1.9-3.6c-1.3-1.9-3.4-2.8-5.6-2.3c-0.1,0-0.2,0-0.3,0.1
			c-6.3,1.5-3.6,11.1,2.7,9.6c0.1,0,0.2,0,0.3-0.1c-1.9-0.8-3.8-1.5-5.6-2.3c2.9,4.2,5.4,11.7,12.1,9.7c6.2-1.8,6.7-9.6,2.6-13.7
			c-1.9-1.9-4.8-2.5-7.2-1.1c-1.2,0.7-2.2,2-3,3.1c-0.4,0.6-0.8,1.3-1.2,2c-1.3,1.4-0.7,2.7,1.8,3.9c0.4-0.3,0.3-2.7,0.2-3.3
			c-0.1-1.5-0.7-3-1.7-4.1c-2.4-2.4-6.8-2.3-9.9-2.5C1008.8,691.9,1008.8,701.9,1015.2,702.2L1015.2,702.2z"/>
	</g>
</g>
<g>
	<g>
		<path class="st0" d="M1036.4,695.7c-1.8,4.5-3.4,12.4,2.6,14.6c2.6,0.9,5.2,0.1,7.2-1.6c1.6-1.4,3.4-6.3,4.4-6.7
			c-1.3,0.2-2.6,0.3-3.9,0.5c-1-0.8-1.2-0.8-0.6,0.1c0.4,0.7,0.8,1.3,1.2,2c0.5,0.7,1,1.4,1.7,1.9c1.8,1.4,4.1,1.7,6.2,0.6
			c4.2-2.2,4.8-8.3,6.4-12.3c-3.2,0-6.4,0-9.6,0c0.5,1.5,1,0.9-0.8,1.7c-1.7,0.7-3.4,1.8-4.9,2.8c-2.5,1.7-4.3,3.6-6,6
			c-2,3.1,0.6,7.8,4.3,7.5c4-0.2,7.4-2.8,10.3-5.4c1.5-1.3,2.9-2.8,4.1-4.4c0.7-0.9,1.4-1.9,2.1-2.9c0.8-1.3,1.8-1.7,0-1.8
			c-1.2-0.5-2.4-1-3.5-1.5c0.8,0.7-1.4,5.4-1.3,6.7c0,2,1.5,4.4,3.7,4.8c1.6,0.3,2.8-0.1,4.4-0.1c-1.4-0.8-2.9-1.7-4.3-2.5
			c-1.4-2.3,0.2,1.1,0.4,1.5c0.3,0.7,1,1.1,1.3,1.8c2.7,5.8,11.3,0.8,8.6-5c-0.3-0.7-2.3-3.2-0.7-0.1c-0.5-0.9-0.5-2.2-1.1-3.2
			c-0.9-1.5-2.6-2.6-4.3-2.5c-0.4,0-1.9,0.5-1.8,0.5c1.2,1.6,2.4,3.2,3.7,4.8c0-1.6,1.2-3.7,1.2-5.5c0.1-2-0.2-4.1-1.1-5.9
			c-1.4-2.9-4.4-4.6-7.7-3.7c-3.6,0.9-4.8,4.5-6.7,7.3c-1.2,1.7-2.6,3.3-4.2,4.7c-0.8,0.7-1.7,1.4-2.6,1.9c-1.6,0.8-1.8,1-0.6,0.6
			c1.4,2.5,2.9,5,4.3,7.5c2.5-3.9,7.5-4.5,10.8-7.5c3.1-2.8,3.2-6.9,1.9-10.7c-1.7-4.9-7.8-4.5-9.6,0c-0.6,1.4-1,2.9-1.5,4.3
			c-0.2,0.5-0.3,1-0.5,1.4c-1.1,1.9-1,2.1,0.2,0.5c1.3-0.2,2.6-0.3,3.9-0.5c2.4,0.9-0.6-2.6-1.3-3.3c-1.4-1.4-3.4-2.2-5.4-2
			c-1.9,0.2-3.6,1.4-4.7,2.9c-0.8,1-2.1,5.2-3,5.3c1.3,0.2,2.6,0.3,3.9,0.5c1.1,2,1.6,2,1.6-0.2c0.3-1,0.6-1.9,1-2.8
			C1048.5,692.4,1038.8,689.8,1036.4,695.7L1036.4,695.7z"/>
	</g>
</g>
<g>
	<g>
		<path class="st0" d="M1062.9,693.3c1.6,5.6,3.1,20.2,11.3,20.1c3.7,0,5.6-3.3,5.9-6.6c0.2-2-0.2-4-0.7-5.9c-0.4-1.7-2.2-4.8-2-6.5
			c-0.8,1-1.5,2-2.3,3c-3,0-3.9,0.9-2.8,2.8c0.3,1,0.5,2,0.9,2.9c0.6,1.7,1.3,3.6,2.6,4.9c2.1,2.1,5.1,2.7,7.6,1
			c6.4-4.4,2.5-14.1,0.9-19.8c-1.6,2.1-3.2,4.2-4.8,6.3c-1.5,0-0.6-0.1-0.1,1.5c0.4,1.5,0.3,3.2,0.3,4.8c0,2.1,0.1,4,1.2,5.9
			c1.2,2.1,3.4,2.7,5.6,2.3c8.6-1.4,4.8-13.1,5.3-18.5c-0.8,1.4-1.7,2.9-2.5,4.3c0.2-0.1,0.4-0.2,0.5-0.2c-1.3,0.2-2.6,0.3-3.9,0.5
			c-2.2-0.8-1.4,0.5-0.8,2.4c0.3,0.9,0.8,1.8,1.3,2.6c1.3,1.8,2.9,2.6,4.9,3.4c-1-0.8-2-1.5-3-2.3c0.1,0.6,0.1,1.2,0.2,1.8
			c0.9,6.3,10.5,3.6,9.6-2.7c-0.3-1.8-0.6-3.8-2-5.2c-0.6-0.6-1.9-1.3-2-1.5c-0.1-0.1-0.4-2.9-0.5-3.2c-1.7-4.2-5.4-6-9.5-4.2
			c-1.6,0.7-2.3,2.7-2.5,4.3c-0.1,1.6,0.4,3.3,0.5,4.9c0.1,1,0.2,2,0.2,3c-0.8,2.7-0.3,3,1.4,0.9c1.9,0.8,3.8,1.5,5.6,2.3
			c0.5,0.9,0.1-0.3,0.2-0.9c0.2-1.1,0-2.5-0.1-3.6c-0.2-2.2-0.6-4.3-1.5-6.3c-1.7-3.8-4.4-6.2-8.6-6.3c-3.3-0.1-5.7,3.3-4.8,6.3
			c0.3,1.3,3.4,8.6,2.2,9.7c1.6-0.4,3.2-0.9,4.9-1.3c2.1,0.4,0.3-2.8-0.2-4.2c-0.6-1.8-1.4-3.5-2.6-5c-1.8-2.2-4.4-3.8-7.4-3
			c-2.5,0.6-3.8,2.9-4,5.3c-0.1,2,0.5,4.4,1,6.3c0.3,1.1,2.3,5,1.6,6.1c1.4-0.8,2.9-1.7,4.3-2.5c0.8,0.4,1.5,0.7,2.3,1.1
			c-0.2-0.5-0.4-0.9-0.5-1.4c0-1.3-0.8-2.9-1.2-4.1c-0.8-2.8-1.6-5.6-2.4-8.4C1070.8,684.4,1061.1,687.1,1062.9,693.3L1062.9,693.3z
			"/>
	</g>
</g>
<g>
	<g>
		<path class="st0" d="M1090.2,694.8c0.9,4.9,3.3,10.4,9,10.9c2.4,0.2,4.9-0.5,6.6-2.3c1.6-1.7,1.3-4.1,2.5-5.7
			c-2.3,0.6-4.6,1.2-6.8,1.8c-1.6-0.9,0.1,1.4,0.5,2.1c0.6,1.2,1.4,2.3,2.3,3.3c1.5,1.9,3.4,3.7,5.9,4.1c2.5,0.5,4.7-0.4,6.2-2.3
			c1.7-2.2,1.4-5.1,2.8-7.3c-1,0.8-2,1.5-3,2.3c0.2,0,0.4-0.1,0.6-0.1c-1.6-0.4-3.2-0.9-4.9-1.3c1.6,1.6,2.3,4.7,4,6.5
			c2.3,2.6,7.8,1.5,8.4-2.2c0.7-5.4,2.2-14.2-4.2-16.9c-4.9-2-14.5-1.2-19.1,1.5c-2.5,1.5-2.9,4.4-1.8,6.8c1.5,3.3,7,4.8,10.2,5.6
			c2.1,0.5,4.3,0.9,6.5,1.4c1.5,0.4,3.1,0.7,4.6,1.1c0.6,0.2,1.2,0.3,1.8,0.5c1.4,0.5,1.3,0.2-0.3-0.9c0.3,6.4,10.3,6.4,10,0
			c-0.3-5.4-3-7.7-8-9c-3-0.8-5.9-1.5-8.9-2.1c-1.5-0.3-3.1-0.6-4.6-1.1c-0.9-0.3-3.5-2.1-2.8-0.6c-0.6,2.3-1.2,4.6-1.8,6.8
			c2-1.1,5.4-0.7,7.6-1c1-0.1,2,0.6,1.2-0.6c0.5,0.7-0.1,4.9-0.2,5.6c2.8-0.7,5.6-1.5,8.4-2.2c-2.8-3.1-3.1-9.1-8.8-7.8
			c-1.6,0.3-2.9,1.3-3.7,2.7c-1,1.6-0.8,4.7-1.9,5.9c1.2-0.5,2.4-1,3.5-1.5c-0.6,0-3.7-7.2-5.4-8.2c-2.5-1.4-5.2-0.4-6.8,1.8
			c-0.4,0.5-1.5,2.5-1.2,3.2c-0.4,1.3,0.2,1,1.9-1c-0.2-0.9-0.4-1.8-0.6-2.7C1098.7,685.8,1089,688.5,1090.2,694.8L1090.2,694.8z"/>
	</g>
</g>
<g>
	<g>
		<path class="st0" d="M1121.7,697.8c3,3,8.5,7.2,12.9,7c5.6-0.2,7.3-6.1,6.7-10.8c-0.3-2.5-2.1-5.3-5-5c-2.1,0.2-4.1,0.2-6.1-0.1
			c-0.4,3.3-0.9,6.5-1.3,9.8c2.4,0.3,4.7,0.3,7.1,0c1.5-0.2,2.7-0.6,4.1-1.1c1.5-0.6,2.8-0.3,1.8-2.1c-1.2-2-1,0.2-1.4,1.5
			c-0.4,1-0.9,2-1.5,2.9c-1,1.6-2.4,3-2.8,4.9c-0.4,1.6-0.1,3.7,1.3,4.9c7.8,6.4,14.1-6.1,14.1-12.5c0-6.4-10-6.4-10,0
			c0,1-0.1,1.9-0.5,2.9c-0.5,1.2-1.7,1.5,0.2,1.4c1.2,0.5,2.4,1,3.5,1.5c-0.1-0.1-0.2-0.2-0.3-0.3c0.4,1.6,0.9,3.2,1.3,4.9
			c0.2-0.9,1.7-2.2,2.2-3.1c0.9-1.5,1.6-3.1,2.1-4.7c1.1-3.1,2-6.9,0-9.8c-2.1-3-6-3.8-9.4-3c-1.8,0.4-3.4,1.4-5.2,1.8
			c-2.1,0.6-4.4,0.3-6.5,0.1c-5.6-0.6-6.9,8.9-1.3,9.8c3,0.5,5.8,0.7,8.8,0.5c-1.7-1.7-3.3-3.3-5-5c0.2,0.7,0.2,1.4,0.1,2.1
			c-0.2,1-0.1,1,0.2,0c1.2-0.5,2.4-1,3.5-1.5c-1.8,0.2-5.3-2.9-6.4-4.1C1124.2,686.1,1117.2,693.2,1121.7,697.8L1121.7,697.8z"/>
	</g>
</g>
<g>
	<g>
		<path class="st0" d="M1153.1,688.8c-2,1.3-4.2,2.6-5.4,4.8c-1.6,2.9-0.9,6.7,2.1,8.4c2.5,1.4,5.3,0.3,7.7-0.7
			c2.4-1,4.3-2.1,5.8-4.4c-1,0.8-2,1.5-3,2.3c0.1,0,0.1,0,0.2-0.1c-1.3-0.2-2.6-0.3-3.9-0.5c-1-1.1-1.2-1.2-0.7-0.3
			c-0.2-0.8-0.5-1.7-0.7-2.5c0,0.2,0,0.4,0.1,0.6c0.2-0.8,0.5-1.7,0.7-2.5c0.8-1.1-1.3,0.6-1.7,0.7c-0.7,0.4-1.4,0.7-2,1.1
			c-1.8,1-3.6,2.1-4.8,3.8c-2.9,4.2,0.3,8.6,4.8,9.4c-0.7-0.4-1.5-0.9-2.2-1.3c0.5,0.5,1.1,1,1.7,1.4c2.2,1.5,5.5,0.4,6.8-1.8
			c1.4-2.5,0.5-5.3-1.8-6.8c1,0.7-1-0.7-1.3-0.9c-0.3-0.2-0.6-0.3-0.9-0.3c-0.9-0.2-0.5,0.2,0.9,1.2c0.2,1.3,0.3,2.6,0.5,3.9
			c-0.5,1.6-1,1.3,0.2,0.7c0.6-0.3,1.1-0.6,1.7-0.9c1.1-0.6,2.3-1.2,3.3-1.9c3.1-2.2,5.2-5.3,3.1-9c-1.5-2.7-4.4-4.5-7.4-3.2
			c-0.9,0.4-2,1.1-2.4,2c-0.2,0.5,0.8-0.2,0.1-0.2c-0.4,0-0.9,0.4-1.2,0.6c-0.3,0.1-2,0.5-1.2,0.5c0.8,0.2,1.7,0.5,2.5,0.7
			c-0.1-0.1-0.3-0.2-0.4-0.3c0.8,1,1.5,2,2.3,3c0-0.2-0.1-0.5-0.1-0.7c0,0.9,0,1.8,0,2.7c-0.2,0.6-0.4,0.4,0.1,0.3
			c0.4-0.1,1.1-0.7,1.4-0.9C1163.6,694,1158.6,685.3,1153.1,688.8L1153.1,688.8z"/>
	</g>
</g>
<g>
	<g>
		<path class="st0" d="M1154.5,699.7c-1.6-0.1-3.1,0.3-4.3,1.4c-2,2-2,5.3,0,7.3c1.4,1.4,3.4,1.9,5.3,1.5c1.2-0.3,1.9-1,2.9-1.7
			c-0.3,0.3-0.7,0.5-1,0.8c0,0,0.1,0,0.1-0.1c-0.8,0.2-1.7,0.5-2.5,0.7c0,0,0.1,0,0.1,0c-0.8-0.2-1.7-0.5-2.5-0.7
			c0.4,0.2,0.9,0.4,1.3,0.5c0.9,0.2,1.8,0.2,2.7,0c0.9-0.3,1.7-0.8,2.4-1.5c0.6-0.6,1.1-1.3,1.5-2c0.7-1.1,0.8-2.6,0.5-3.9
			c-0.3-1.2-1.2-2.4-2.3-3c-2.5-1.3-5.4-0.6-6.8,1.8c-0.1,0.1-0.2,0.3-0.3,0.4c0.3-0.3,0.5-0.7,0.8-1c-0.2,0.2-0.4,0.4-0.6,0.7
			c0.3-0.3,0.7-0.5,1-0.8c0,0,0,0-0.1,0c1.7,0,3.4,0,5,0c-0.9-0.4-1.6-0.7-2.6-0.7c-0.8,0-1.4,0.1-2,0.4c-0.9,0.4-0.8,0.3-1.7,1.1
			c-0.1,0.1-0.2,0.2-0.3,0.3c0.3-0.3,0.7-0.5,1-0.8c-0.1,0.1-0.2,0.1-0.2,0.1c0.4-0.2,0.8-0.3,1.2-0.5c0,0-0.1,0-0.1,0
			c0.4-0.1,0.9-0.1,1.3-0.2c0,0-0.1,0-0.1,0c0.4,0.1,0.9,0.1,1.3,0.2c0,0-0.1,0-0.1,0c0.4,0.2,0.8,0.3,1.2,0.5c0,0-0.1,0-0.1-0.1
			c0.3,0.3,0.7,0.5,1,0.8c0,0,0-0.1-0.1-0.1c0.4,0.7,0.9,1.5,1.3,2.2c0,0,0-0.1,0-0.1c-0.2,1.3-0.3,2.6-0.5,3.9c0,0,0-0.1,0.1-0.1
			c-1.4,0.8-2.9,1.7-4.3,2.5c0.2,0,0.5,0,0.8,0c1.2,0.1,2.7-0.6,3.5-1.5c0.9-0.9,1.5-2.3,1.5-3.5c-0.1-1.3-0.5-2.6-1.5-3.5
			C1157,700.2,1155.9,699.8,1154.5,699.7L1154.5,699.7z"/>
	</g>
</g>
<g>
	<g>
		<path class="st0" d="M1159.7,706.9c0.2-0.3,0.2-0.3-0.2,0.1c-0.3,0.3-0.6,0.5-1,0.6c0.2,0,0.4-0.1,0.6-0.2c1.2-0.5,2.1-1,3-1.9
			c1.2-1.2,2-2.8,3-4.1c-2.6,0.3-5.2,0.7-7.9,1c0.4,0.4,0.2,0.3-0.4-0.5c0-1.7,0-3.4,0-5c0,0,0,0.1-0.1,0.1c0.6-0.6,1.2-1.2,1.8-1.8
			c-0.4,0.2-0.9,0.6-1.3,1c-1.2,1.2-1.9,3.2-1.3,4.9c0,0,0,0.1,0,0.1c0.9,2.5,3.5,4.4,6.2,3.5c2.4-0.8,4.4-3.5,3.5-6.2
			c0,0,0-0.1,0-0.1c-0.4,1.6-0.9,3.2-1.3,4.9c-0.9,0.7-1,0.8-0.2,0.2c0.5-0.4,1-0.8,1.3-1.4c0.4-0.8,0.8-1.7,0.8-2.6
			c-0.1-1.7-0.8-2.8-1.9-4c-1-1.2-2.7-1.6-4.2-1.4c-1.6,0.2-2.7,1.1-3.7,2.4c-0.4,0.5-0.7,1.1-1.1,1.6c-0.2,0.3-0.4,0.5-0.6,0.8
			c-0.2,0.2-0.1,0.2,0.1-0.1c0.2-0.3,0.4-0.5,0.7-0.6c0.1,0,1.2-0.4,0.5-0.2c-0.4,0.1-0.7,0.3-1.1,0.4c-0.9,0.4-1.8,0.8-2.4,1.6
			c-0.9,1.1-1.5,2.1-1.5,3.5c0,1.2,0.5,2.7,1.5,3.5C1154.4,708.6,1157.9,709.1,1159.7,706.9L1159.7,706.9z"/>
	</g>
</g>
<g>
	<g>
		<path class="st0" d="M1163.4,701.7c0.3,0-0.1,1.3-0.2,1.4c-0.3,0.7-0.7,1.3-1.2,1.7c-0.9,0.7-2.1,1.8-3.2,2
			c-0.5,0.1-0.5,0.8,0,0.8c1.7-0.2,3.6-1.7,4.5-3c0.6-0.8,1.8-3.5,0.1-3.6C1162.9,700.9,1162.9,701.7,1163.4,701.7L1163.4,701.7z"/>
	</g>
</g>
<g>
	<g>
		<path class="st0" d="M1155.9,709.5c0.9-0.1,1.4-0.4,2.2-0.8c0.9-0.6,1.8-1,2.7-1.6c0.4-0.3-0.2-0.8-0.5-0.5
			c-0.7,0.6-1.5,1-2.3,1.4c-0.7,0.4-1.2,0.8-2.1,0.9C1155.4,708.7,1155.4,709.5,1155.9,709.5L1155.9,709.5z"/>
	</g>
</g>
<g>
	<g>
		<path class="st0" d="M1159.9,706.8c0.1,0.2,0.2,0.3,0.4,0.4c0-0.2-0.1-0.5-0.1-0.7c-0.1,0-0.1,0.1-0.2,0.1
			c0.1,0.2,0.3,0.4,0.4,0.6c1.6-0.9,2.9-2.2,4-3.6c0.3-0.4-0.4-0.8-0.6-0.4c-1,1.4-2.3,2.5-3.7,3.4c-0.4,0.2,0,0.9,0.4,0.6
			c0.1,0,0.1-0.1,0.2-0.1c0.3-0.2,0.2-0.6-0.1-0.7c0,0-0.1,0-0.1,0c0.1,0.1,0.2,0.2,0.3,0.3c0,0,0-0.1,0-0.1
			C1160.5,706.2,1159.8,706.4,1159.9,706.8L1159.9,706.8z"/>
	</g>
</g>
<g>
	<g>
		<path class="st0" d="M1161.9,705.1c0,0.1,0,0.1,0,0.2c-0.2,0.2-0.1,0.6,0.2,0.6c0.2,0,0.3,0,0.4-0.1c0.2-0.1,0.3-0.4,0.4-0.4
			c-0.2-0.1-0.4-0.1-0.6-0.2c0,0,0,0,0,0c0.1-0.2,0.2-0.3,0.3-0.5c0,0,0,0,0,0c0.1,0.2,0.2,0.5,0.3,0.7c0.4-0.2,0.7-0.6,1.1-1
			c0.3-0.3,0.6-0.5,0.7-0.9c0.2-0.4-0.5-0.6-0.7-0.2c-0.1,0.3-0.5,0.5-0.7,0.7c-0.3,0.3-0.5,0.5-0.8,0.7c-0.4,0.2-0.1,0.8,0.3,0.7
			c0,0,0,0,0,0c0.2-0.1,0.3-0.3,0.3-0.5c0,0,0,0,0,0c-0.1-0.2-0.3-0.3-0.6-0.2c-0.2,0.1-0.3,0.3-0.5,0.5c0.1,0,0.2,0,0.3,0
			c0,0-0.1,0-0.1,0c0.1,0.2,0.1,0.4,0.2,0.6c0.2-0.2,0.3-0.4,0.3-0.7C1162.6,704.6,1161.9,704.6,1161.9,705.1L1161.9,705.1z"/>
	</g>
</g>
<g>
	<g>
		<path class="st0" d="M1162.1,705.5c0.1,0,0.2,0.1,0.4,0.1c0.5,0.2,0.6-0.6,0.2-0.7c-0.1,0-0.2-0.1-0.4-0.1
			C1161.8,704.7,1161.6,705.4,1162.1,705.5L1162.1,705.5z"/>
	</g>
</g>
<g>
	<g>
		<path class="st0" d="M1164.2,703.5c0.7,0.1,0.9-0.5,1.1-1c0.3-0.7,0.6-1.2,0.6-2c0.1-0.5-0.7-0.5-0.8,0c0,0.4-0.1,0.8-0.3,1.2
			c0,0.1-0.5,1.1-0.5,1.1C1163.9,702.7,1163.7,703.4,1164.2,703.5L1164.2,703.5z"/>
	</g>
</g>
<g>
	<g>
		<path class="st0" d="M1165.4,700.3c-0.2,1.1-0.6,1.9-1.3,2.8c-0.3,0.4,0.4,0.8,0.6,0.4c0.6-0.9,1.1-1.8,1.3-3
			C1166.2,700,1165.5,699.8,1165.4,700.3L1165.4,700.3z"/>
	</g>
</g>
<g>
	<g>
		<path class="st0" d="M1165.4,700c0,0.1,0,0.1,0,0.2c0,0.5,0.8,0.5,0.8,0c0-0.3-0.1-0.5-0.3-0.7
			C1165.6,699.1,1165,699.6,1165.4,700L1165.4,700z"/>
	</g>
</g>
</svg>
